<?xml version="1.0" encoding="UTF-8" standalone="no"?>
<!DOCTYPE svg PUBLIC "-//W3C//DTD SVG 1.1//EN"
 "http://www.w3.org/Graphics/SVG/1.1/DTD/svg11.dtd">
<!-- Generated by graphviz version 2.38.0 (20140413.2041)
 -->
<!-- Title: Make_Targets Pages: 1 -->
<svg width="2557pt" height="2437pt"
 viewBox="0.00 0.00 2556.60 2436.80" xmlns="http://www.w3.org/2000/svg" xmlns:xlink="http://www.w3.org/1999/xlink">
<g id="graph0" class="graph" transform="scale(1 1) rotate(0) translate(4 2432.8)">
<title>Make_Targets</title>
<polygon fill="white" stroke="none" points="-4,4 -4,-2432.8 2552.6,-2432.8 2552.6,4 -4,4"/>
<text text-anchor="middle" x="1274.3" y="-8.2" font-family="Times,serif" font-size="14.00">Makefile Target Order</text>
<!-- node_20 -->
<g id="node1" class="node"><title>node_20</title>
<ellipse fill="#367f57" stroke="black" cx="1279.08" cy="-874.8" rx="97.214" ry="18"/>
<text text-anchor="middle" x="1279.08" y="-870.6" font-family="Times,serif" font-size="14.00">ad_price_ad_level.csv</text>
</g>
<!-- cluster_4 -->
<g id="node13" class="node"><title>cluster_4</title>
<ellipse fill="#bc91ff" stroke="black" cx="2002.88" cy="-774.8" rx="35.9154" ry="18"/>
<text text-anchor="middle" x="2002.88" y="-770.6" font-family="Times,serif" font-size="14.00">export</text>
</g>
<!-- node_20&#45;&gt;cluster_4 -->
<g id="edge45" class="edge"><title>node_20&#45;&gt;cluster_4</title>
<path fill="none" stroke="black" d="M1637.95,-874.8C1721.81,-867.802 1749.01,-889.01 1826.32,-855.8 1845.72,-847.467 1844.08,-835.428 1862.32,-824.8 1893.36,-806.723 1932.02,-793.496 1960.78,-785.204"/>
<polygon fill="black" stroke="black" points="1961.83,-788.546 1970.51,-782.477 1959.94,-781.806 1961.83,-788.546"/>
<path fill="none" stroke="black" d="M1373.54,-879.037C1445.42,-881.271 1547.14,-882.211 1635.95,-874.8"/>
</g>
<!-- node_37 -->
<g id="node44" class="node"><title>node_37</title>
<ellipse fill="#367f57" stroke="black" cx="2002.88" cy="-851.8" rx="123.277" ry="18"/>
<text text-anchor="middle" x="2002.88" y="-847.6" font-family="Times,serif" font-size="14.00">reports/usage/graph_data.csv</text>
</g>
<!-- node_20&#45;&gt;node_37 -->
<g id="edge37" class="edge"><title>node_20&#45;&gt;node_37</title>
<path fill="none" stroke="black" d="M1637.95,-874.8C1717.17,-868.189 1806.24,-862.53 1876.43,-858.479"/>
<polygon fill="black" stroke="black" points="1876.87,-861.96 1886.65,-857.893 1876.46,-854.971 1876.87,-861.96"/>
</g>
<!-- node_18 -->
<g id="node50" class="node"><title>node_18</title>
<ellipse fill="#367f57" stroke="black" cx="1636.95" cy="-828.8" rx="101.857" ry="18"/>
<text text-anchor="middle" x="1636.95" y="-824.6" font-family="Times,serif" font-size="14.00">msa_characteristics.csv</text>
</g>
<!-- node_20&#45;&gt;node_18 -->
<g id="edge24" class="edge"><title>node_20&#45;&gt;node_18</title>
<path fill="none" stroke="black" d="M1359.06,-864.591C1413.73,-857.525 1486.67,-848.096 1543.96,-840.691"/>
<polygon fill="black" stroke="black" points="1544.64,-844.133 1554.1,-839.379 1543.74,-837.19 1544.64,-844.133"/>
</g>
<!-- node_52 -->
<g id="node2" class="node"><title>node_52</title>
<ellipse fill="#1fff84" stroke="black" cx="2364.01" cy="-42.8" rx="142.936" ry="18"/>
<text text-anchor="middle" x="2364.01" y="-38.6" font-family="Times,serif" font-size="14.00">data/forGiantOak3/ids_to_urls.tsv</text>
</g>
<!-- cluster_6 -->
<g id="node3" class="node"><title>cluster_6</title>
<ellipse fill="#bc91ff" stroke="black" cx="2364.01" cy="-1175.8" rx="67.1825" ry="18"/>
<text text-anchor="middle" x="2364.01" y="-1171.6" font-family="Times,serif" font-size="14.00">usa_00017.dat</text>
</g>
<!-- node_31 -->
<g id="node4" class="node"><title>node_31</title>
<ellipse fill="#367f57" stroke="black" cx="1636.95" cy="-396.8" rx="114.047" ry="18"/>
<text text-anchor="middle" x="1636.95" y="-392.6" font-family="Times,serif" font-size="14.00">female_violence_nibrs.csv</text>
</g>
<!-- cluster_3 -->
<g id="node56" class="node"><title>cluster_3</title>
<ellipse fill="#bc91ff" stroke="black" cx="2002.88" cy="-450.8" rx="29.6127" ry="18"/>
<text text-anchor="middle" x="2002.88" y="-446.6" font-family="Times,serif" font-size="14.00">local</text>
</g>
<!-- node_31&#45;&gt;cluster_3 -->
<g id="edge6" class="edge"><title>node_31&#45;&gt;cluster_3</title>
<path fill="none" stroke="black" d="M1722.84,-408.779C1755.24,-413.4 1792.5,-418.775 1826.32,-423.8 1873.8,-430.852 1928.43,-439.309 1963.98,-444.856"/>
<polygon fill="black" stroke="black" points="1963.5,-448.324 1973.92,-446.41 1964.58,-441.408 1963.5,-448.324"/>
</g>
<!-- node_50 -->
<g id="node5" class="node"><title>node_50</title>
<ellipse fill="#367f57" stroke="black" cx="2364.01" cy="-1337.8" rx="108.856" ry="18"/>
<text text-anchor="middle" x="2364.01" y="-1333.6" font-family="Times,serif" font-size="14.00">2014.q1&#45;q3.singlefile.csv</text>
</g>
<!-- node_30 -->
<g id="node6" class="node"><title>node_30</title>
<ellipse fill="#367f57" stroke="black" cx="1636.95" cy="-342.8" rx="94.9841" ry="18"/>
<text text-anchor="middle" x="1636.95" y="-338.6" font-family="Times,serif" font-size="14.00">prostitution_nibrs.csv</text>
</g>
<!-- node_30&#45;&gt;cluster_3 -->
<g id="edge7" class="edge"><title>node_30&#45;&gt;cluster_3</title>
<path fill="none" stroke="black" d="M1724.41,-349.871C1756.82,-353.902 1793.69,-360.157 1826.32,-369.8 1879.73,-385.581 1937.64,-414.926 1971.79,-433.627"/>
<polygon fill="black" stroke="black" points="1970.33,-436.817 1980.77,-438.599 1973.72,-430.693 1970.33,-436.817"/>
</g>
<!-- node_11 -->
<g id="node7" class="node"><title>node_11</title>
<ellipse fill="#19cc69" stroke="black" cx="2364.01" cy="-1391.8" rx="53.8735" ry="18"/>
<text text-anchor="middle" x="2364.01" y="-1387.6" font-family="Times,serif" font-size="14.00">cols_17.txt</text>
</g>
<!-- cluster_5 -->
<g id="node8" class="node"><title>cluster_5</title>
<ellipse fill="#bc91ff" stroke="black" cx="2364.01" cy="-1445.8" rx="60.8159" ry="18"/>
<text text-anchor="middle" x="2364.01" y="-1441.6" font-family="Times,serif" font-size="14.00">escort_cdr_2</text>
</g>
<!-- cluster_12 -->
<g id="node9" class="node"><title>cluster_12</title>
<ellipse fill="#bc91ff" stroke="black" cx="2364.01" cy="-1499.8" rx="69.4993" ry="18"/>
<text text-anchor="middle" x="2364.01" y="-1495.6" font-family="Times,serif" font-size="14.00">micro_analysis</text>
</g>
<!-- node_19 -->
<g id="node10" class="node"><title>node_19</title>
<ellipse fill="#3cadff" stroke="black" cx="1279.08" cy="-820.8" rx="124.415" ry="18"/>
<text text-anchor="middle" x="1279.08" y="-816.6" font-family="Times,serif" font-size="14.00">make_msa_characteristics.py</text>
</g>
<!-- node_19&#45;&gt;node_18 -->
<g id="edge25" class="edge"><title>node_19&#45;&gt;node_18</title>
<path fill="none" stroke="black" d="M1402.55,-823.553C1442.41,-824.449 1486.41,-825.438 1525.35,-826.314"/>
<polygon fill="black" stroke="black" points="1525.59,-829.82 1535.67,-826.546 1525.75,-822.822 1525.59,-829.82"/>
</g>
<!-- node_16 -->
<g id="node11" class="node"><title>node_16</title>
<ellipse fill="#19cc69" stroke="black" cx="2364.01" cy="-1553.8" rx="184.669" ry="18"/>
<text text-anchor="middle" x="2364.01" y="-1549.6" font-family="Times,serif" font-size="14.00">ICPSR_34603/DS0001/34603&#45;0001&#45;Data.txt</text>
</g>
<!-- node_0 -->
<g id="node12" class="node"><title>node_0</title>
<ellipse fill="#367f57" stroke="black" cx="2364.01" cy="-1607.8" rx="91.5281" ry="18"/>
<text text-anchor="middle" x="2364.01" y="-1603.6" font-family="Times,serif" font-size="14.00">acs_2015_03_18.csv</text>
</g>
<!-- cluster_0 -->
<g id="node34" class="node"><title>cluster_0</title>
<ellipse fill="#bc91ff" stroke="black" cx="2364.01" cy="-612.8" rx="46.9098" ry="18"/>
<text text-anchor="middle" x="2364.01" y="-608.6" font-family="Times,serif" font-size="14.00">.PHONY</text>
</g>
<!-- cluster_4&#45;&gt;cluster_0 -->
<g id="edge1" class="edge"><title>cluster_4&#45;&gt;cluster_0</title>
<path fill="none" stroke="black" d="M2029.99,-763.019C2092.25,-734.937 2249.68,-663.922 2323.57,-630.591"/>
<polygon fill="black" stroke="black" points="2325.33,-633.639 2333.01,-626.336 2322.45,-627.258 2325.33,-633.639"/>
</g>
<!-- node_3 -->
<g id="node14" class="node"><title>node_3</title>
<ellipse fill="#367f57" stroke="black" cx="193.118" cy="-521.8" rx="93.2222" ry="18"/>
<text text-anchor="middle" x="193.118" y="-517.6" font-family="Times,serif" font-size="14.00">data/bach/phones.csv</text>
</g>
<!-- node_56 -->
<g id="node15" class="node"><title>node_56</title>
<ellipse fill="#1fff84" stroke="black" cx="2364.01" cy="-1121.8" rx="118.052" ry="18"/>
<text text-anchor="middle" x="2364.01" y="-1117.6" font-family="Times,serif" font-size="14.00">data/forGiantOak3/rates.tsv</text>
</g>
<!-- node_57 -->
<g id="node16" class="node"><title>node_57</title>
<ellipse fill="#1fff84" stroke="black" cx="2364.01" cy="-1715.8" rx="166.668" ry="18"/>
<text text-anchor="middle" x="2364.01" y="-1711.6" font-family="Times,serif" font-size="14.00">data/forGiantOak6/incalloutcall&#45;new.tsv</text>
</g>
<!-- node_29 -->
<g id="node17" class="node"><title>node_29</title>
<ellipse fill="#367f57" stroke="black" cx="1636.95" cy="-288.8" rx="146.454" ry="18"/>
<text text-anchor="middle" x="1636.95" y="-284.6" font-family="Times,serif" font-size="14.00">month_msa_wage_instruments.csv</text>
</g>
<!-- node_29&#45;&gt;cluster_3 -->
<g id="edge8" class="edge"><title>node_29&#45;&gt;cluster_3</title>
<path fill="none" stroke="black" d="M1764.51,-297.817C1785.66,-301.883 1806.99,-307.651 1826.32,-315.8 1889.03,-342.235 1948.95,-396.651 1979.96,-427.719"/>
<polygon fill="black" stroke="black" points="1977.69,-430.409 1987.2,-435.083 1982.68,-425.5 1977.69,-430.409"/>
</g>
<!-- node_4 -->
<g id="node18" class="node"><title>node_4</title>
<ellipse fill="#367f57" stroke="black" cx="939.451" cy="-1059.8" rx="137.212" ry="18"/>
<text text-anchor="middle" x="939.451" y="-1055.6" font-family="Times,serif" font-size="14.00">data/bach/phones_by_month.csv</text>
</g>
<!-- cluster_8 -->
<g id="node19" class="node"><title>cluster_8</title>
<ellipse fill="#bc91ff" stroke="black" cx="1636.95" cy="-920.8" rx="138.306" ry="18"/>
<text text-anchor="middle" x="1636.95" y="-916.6" font-family="Times,serif" font-size="14.00">reports/usage/usage&#45;report&#45;do.do</text>
</g>
<!-- cluster_8&#45;&gt;node_37 -->
<g id="edge38" class="edge"><title>cluster_8&#45;&gt;node_37</title>
<path fill="none" stroke="black" d="M1728.86,-907.292C1759.91,-902.166 1794.76,-895.846 1826.32,-888.8 1842.53,-885.182 1846.16,-882.602 1862.32,-878.8 1878.99,-874.879 1896.87,-871.101 1914.09,-867.675"/>
<polygon fill="black" stroke="black" points="1915,-871.064 1924.14,-865.7 1913.65,-864.195 1915,-871.064"/>
</g>
<!-- node_43 -->
<g id="node20" class="node"><title>node_43</title>
<ellipse fill="#367f57" stroke="black" cx="2002.88" cy="-1526.8" rx="111.117" ry="18"/>
<text text-anchor="middle" x="2002.88" y="-1522.6" font-family="Times,serif" font-size="14.00">ad_prices_msa_micro.csv</text>
</g>
<!-- node_43&#45;&gt;cluster_12 -->
<g id="edge4" class="edge"><title>node_43&#45;&gt;cluster_12</title>
<path fill="none" stroke="black" d="M2103.92,-1519.28C2161.83,-1514.93 2233.57,-1509.53 2286.86,-1505.52"/>
<polygon fill="black" stroke="black" points="2287.22,-1509.01 2296.93,-1504.77 2286.7,-1502.03 2287.22,-1509.01"/>
</g>
<!-- node_21 -->
<g id="node21" class="node"><title>node_21</title>
<ellipse fill="#367f57" stroke="black" cx="939.451" cy="-494.8" rx="111.095" ry="18"/>
<text text-anchor="middle" x="939.451" y="-490.6" font-family="Times,serif" font-size="14.00">ad_prices_price_level.csv</text>
</g>
<!-- node_21&#45;&gt;node_20 -->
<g id="edge23" class="edge"><title>node_21&#45;&gt;node_20</title>
<path fill="none" stroke="black" d="M945.311,-513.037C962.049,-572.075 1023.18,-759.262 1146.57,-847.8 1156.73,-855.091 1168.41,-860.511 1180.53,-864.525"/>
<polygon fill="black" stroke="black" points="1179.73,-867.94 1190.31,-867.452 1181.73,-861.234 1179.73,-867.94"/>
</g>
<!-- node_36 -->
<g id="node43" class="node"><title>node_36</title>
<ellipse fill="#367f57" stroke="black" cx="1636.95" cy="-666.8" rx="111.679" ry="18"/>
<text text-anchor="middle" x="1636.95" y="-662.6" font-family="Times,serif" font-size="14.00">ad_price_ad_level_all.csv</text>
</g>
<!-- node_21&#45;&gt;node_36 -->
<g id="edge54" class="edge"><title>node_21&#45;&gt;node_36</title>
<path fill="none" stroke="black" d="M1280.08,-80.8C1538.17,-55.2019 1251.06,-470.542 1447.58,-639.8 1467.67,-657.102 1493.67,-666.21 1519.91,-670.56"/>
<polygon fill="black" stroke="black" points="1519.57,-674.047 1529.96,-672.002 1520.56,-667.118 1519.57,-674.047"/>
</g>
<!-- node_21&#45;&gt;cluster_3 -->
<g id="edge9" class="edge"><title>node_21&#45;&gt;cluster_3</title>
<path fill="none" stroke="black" d="M945.654,-476.694C969.056,-399.538 1072.49,-101.19 1278.08,-80.8"/>
<path fill="none" stroke="black" d="M1280.08,-80.8C1400.95,-68.812 1724.12,-34.1634 1826.32,-99.8 1943.32,-174.941 1985.35,-353.346 1997.58,-422.618"/>
<polygon fill="black" stroke="black" points="1994.18,-423.489 1999.3,-432.766 2001.08,-422.322 1994.18,-423.489"/>
</g>
<!-- cluster_7 -->
<g id="node22" class="node"><title>cluster_7</title>
<ellipse fill="#bc91ff" stroke="black" cx="2364.01" cy="-1769.8" rx="67.1825" ry="18"/>
<text text-anchor="middle" x="2364.01" y="-1765.6" font-family="Times,serif" font-size="14.00">usa_00018.dat</text>
</g>
<!-- node_48 -->
<g id="node23" class="node"><title>node_48</title>
<ellipse fill="#367f57" stroke="black" cx="2364.01" cy="-1283.8" rx="108.856" ry="18"/>
<text text-anchor="middle" x="2364.01" y="-1279.6" font-family="Times,serif" font-size="14.00">2012.q1&#45;q4.singlefile.csv</text>
</g>
<!-- node_46 -->
<g id="node24" class="node"><title>node_46</title>
<ellipse fill="#3cadff" stroke="black" cx="2002.88" cy="-1877.8" rx="64.3094" ry="18"/>
<text text-anchor="middle" x="2002.88" y="-1873.6" font-family="Times,serif" font-size="14.00">msa_panel.py</text>
</g>
<!-- cluster_13 -->
<g id="node47" class="node"><title>cluster_13</title>
<ellipse fill="#bc91ff" stroke="black" cx="2364.01" cy="-1823.8" rx="38.8632" ry="18"/>
<text text-anchor="middle" x="2364.01" y="-1819.6" font-family="Times,serif" font-size="14.00">tempus</text>
</g>
<!-- node_46&#45;&gt;cluster_13 -->
<g id="edge41" class="edge"><title>node_46&#45;&gt;cluster_13</title>
<path fill="none" stroke="black" d="M2059.99,-1869.36C2130.59,-1858.75 2250.53,-1840.71 2316.35,-1830.82"/>
<polygon fill="black" stroke="black" points="2317.07,-1834.25 2326.43,-1829.3 2316.03,-1827.33 2317.07,-1834.25"/>
</g>
<!-- node_39 -->
<g id="node25" class="node"><title>node_39</title>
<ellipse fill="#367f57" stroke="black" cx="2002.88" cy="-1985.8" rx="84.0155" ry="18"/>
<text text-anchor="middle" x="2002.88" y="-1981.6" font-family="Times,serif" font-size="14.00">monthly_panel.csv</text>
</g>
<!-- cluster_10 -->
<g id="node51" class="node"><title>cluster_10</title>
<ellipse fill="#bc91ff" stroke="black" cx="2364.01" cy="-1938.8" rx="67.776" ry="18"/>
<text text-anchor="middle" x="2364.01" y="-1934.6" font-family="Times,serif" font-size="14.00">panel_analysis</text>
</g>
<!-- node_39&#45;&gt;cluster_10 -->
<g id="edge28" class="edge"><title>node_39&#45;&gt;cluster_10</title>
<path fill="none" stroke="black" d="M2075.26,-1976.46C2138.33,-1968.2 2229.8,-1956.23 2292.58,-1948.02"/>
<polygon fill="black" stroke="black" points="2293.33,-1951.45 2302.79,-1946.68 2292.42,-1944.51 2293.33,-1951.45"/>
</g>
<!-- node_38 -->
<g id="node26" class="node"><title>node_38</title>
<ellipse fill="#89cdff" stroke="black" cx="2002.88" cy="-905.8" rx="99.599" ry="18"/>
<text text-anchor="middle" x="2002.88" y="-901.6" font-family="Times,serif" font-size="14.00">reports/usage/graphs.R</text>
</g>
<!-- cluster_9 -->
<g id="node40" class="node"><title>cluster_9</title>
<ellipse fill="#bc91ff" stroke="black" cx="2364.01" cy="-851.8" rx="33.045" ry="18"/>
<text text-anchor="middle" x="2364.01" y="-847.6" font-family="Times,serif" font-size="14.00">usage</text>
</g>
<!-- node_38&#45;&gt;cluster_9 -->
<g id="edge49" class="edge"><title>node_38&#45;&gt;cluster_9</title>
<path fill="none" stroke="black" d="M2079.04,-894.129C2110.11,-889.334 2146.5,-883.754 2179.43,-878.8 2228.35,-871.441 2284.64,-863.195 2321.85,-857.775"/>
<polygon fill="black" stroke="black" points="2322.43,-861.228 2331.82,-856.324 2321.42,-854.301 2322.43,-861.228"/>
</g>
<!-- node_23 -->
<g id="node27" class="node"><title>node_23</title>
<ellipse fill="#367f57" stroke="black" cx="1636.95" cy="-774.8" rx="109.95" ry="18"/>
<text text-anchor="middle" x="1636.95" y="-770.6" font-family="Times,serif" font-size="14.00">phone_characteristics.csv</text>
</g>
<!-- node_23&#45;&gt;cluster_4 -->
<g id="edge46" class="edge"><title>node_23&#45;&gt;cluster_4</title>
<path fill="none" stroke="black" d="M1747.14,-774.8C1817.26,-774.8 1904.65,-774.8 1956.71,-774.8"/>
<polygon fill="black" stroke="black" points="1956.95,-778.3 1966.95,-774.8 1956.95,-771.3 1956.95,-778.3"/>
</g>
<!-- node_9 -->
<g id="node28" class="node"><title>node_9</title>
<ellipse fill="#1fff84" stroke="black" cx="2002.88" cy="-1688.8" rx="140.605" ry="18"/>
<text text-anchor="middle" x="2002.88" y="-1684.6" font-family="Times,serif" font-size="14.00">data/forGiantOak6/incall&#45;new.tsv</text>
</g>
<!-- node_9&#45;&gt;node_57 -->
<g id="edge53" class="edge"><title>node_9&#45;&gt;node_57</title>
<path fill="none" stroke="black" d="M2124.46,-1697.87C2153.94,-1700.08 2185.8,-1702.48 2216.35,-1704.77"/>
<polygon fill="black" stroke="black" points="2216.42,-1708.29 2226.65,-1705.55 2216.94,-1701.31 2216.42,-1708.29"/>
</g>
<!-- node_58 -->
<g id="node72" class="node"><title>node_58</title>
<ellipse fill="#1fff84" stroke="black" cx="2364.01" cy="-1661.8" rx="145.262" ry="18"/>
<text text-anchor="middle" x="2364.01" y="-1657.6" font-family="Times,serif" font-size="14.00">data/forGiantOak6/outcall&#45;new.tsv</text>
</g>
<!-- node_9&#45;&gt;node_58 -->
<g id="edge26" class="edge"><title>node_9&#45;&gt;node_58</title>
<path fill="none" stroke="black" d="M2124.46,-1679.73C2158.13,-1677.2 2194.9,-1674.44 2229.27,-1671.85"/>
<polygon fill="black" stroke="black" points="2229.67,-1675.34 2239.38,-1671.1 2229.14,-1668.35 2229.67,-1675.34"/>
</g>
<!-- node_33 -->
<g id="node29" class="node"><title>node_33</title>
<ellipse fill="#367f57" stroke="black" cx="1636.95" cy="-234.8" rx="84.5564" ry="18"/>
<text text-anchor="middle" x="1636.95" y="-230.6" font-family="Times,serif" font-size="14.00">provider_panel.csv</text>
</g>
<!-- node_33&#45;&gt;cluster_3 -->
<g id="edge10" class="edge"><title>node_33&#45;&gt;cluster_3</title>
<path fill="none" stroke="black" d="M1721.87,-234.802C1755.89,-237.791 1794.57,-245.173 1826.32,-261.8 1900.43,-300.601 1959.86,-383.404 1986.57,-425.338"/>
<polygon fill="black" stroke="black" points="1983.64,-427.256 1991.92,-433.875 1989.58,-423.541 1983.64,-427.256"/>
</g>
<!-- node_53 -->
<g id="node30" class="node"><title>node_53</title>
<ellipse fill="#1fff84" stroke="black" cx="2364.01" cy="-1067.8" rx="118.656" ry="18"/>
<text text-anchor="middle" x="2364.01" y="-1063.6" font-family="Times,serif" font-size="14.00">data/forGiantOak3/links.tsv</text>
</g>
<!-- node_44 -->
<g id="node31" class="node"><title>node_44</title>
<ellipse fill="#89cdff" stroke="black" cx="2002.88" cy="-1472.8" rx="115.229" ry="18"/>
<text text-anchor="middle" x="2002.88" y="-1468.6" font-family="Times,serif" font-size="14.00">individual_level_analysis.r</text>
</g>
<!-- node_44&#45;&gt;cluster_12 -->
<g id="edge5" class="edge"><title>node_44&#45;&gt;cluster_12</title>
<path fill="none" stroke="black" d="M2107.27,-1480.57C2164.58,-1484.88 2234.6,-1490.15 2286.87,-1494.08"/>
<polygon fill="black" stroke="black" points="2286.85,-1497.58 2297.08,-1494.84 2287.37,-1490.6 2286.85,-1497.58"/>
</g>
<!-- node_25 -->
<g id="node32" class="node"><title>node_25</title>
<ellipse fill="#367f57" stroke="black" cx="1636.95" cy="-180.8" rx="84.5333" ry="18"/>
<text text-anchor="middle" x="1636.95" y="-176.6" font-family="Times,serif" font-size="14.00">ad_zero_prices.csv</text>
</g>
<!-- node_25&#45;&gt;cluster_3 -->
<g id="edge11" class="edge"><title>node_25&#45;&gt;cluster_3</title>
<path fill="none" stroke="black" d="M1721.53,-178.783C1756.07,-181.369 1795.22,-188.998 1826.32,-207.8 1912.55,-259.927 1968.76,-372.181 1991.04,-423.812"/>
<polygon fill="black" stroke="black" points="1987.93,-425.443 1995.04,-433.294 1994.38,-422.72 1987.93,-425.443"/>
</g>
<!-- node_10 -->
<g id="node33" class="node"><title>node_10</title>
<ellipse fill="#1fff84" stroke="black" cx="193.118" cy="-575.8" rx="131.958" ry="18"/>
<text text-anchor="middle" x="193.118" y="-571.6" font-family="Times,serif" font-size="14.00">data/forGiantOak3/isssexad.tsv</text>
</g>
<!-- node_8 -->
<g id="node35" class="node"><title>node_8</title>
<ellipse fill="#1fff84" stroke="black" cx="577.283" cy="-467.8" rx="155.093" ry="18"/>
<text text-anchor="middle" x="577.283" y="-463.6" font-family="Times,serif" font-size="14.00">data/forGiantOak3/msa_locations.tsv</text>
</g>
<!-- node_8&#45;&gt;node_21 -->
<g id="edge30" class="edge"><title>node_8&#45;&gt;node_21</title>
<path fill="none" stroke="black" d="M708.058,-477.529C747.473,-480.483 790.384,-483.7 828.373,-486.548"/>
<polygon fill="black" stroke="black" points="828.2,-490.045 838.433,-487.302 828.723,-483.064 828.2,-490.045"/>
</g>
<!-- node_14 -->
<g id="node36" class="node"><title>node_14</title>
<ellipse fill="#19cc69" stroke="black" cx="2364.01" cy="-2019.8" rx="91.5223" ry="18"/>
<text text-anchor="middle" x="2364.01" y="-2015.6" font-family="Times,serif" font-size="14.00">36120&#45;0003&#45;Data.txt</text>
</g>
<!-- node_55 -->
<g id="node37" class="node"><title>node_55</title>
<ellipse fill="#1fff84" stroke="black" cx="2364.01" cy="-1013.8" rx="122.709" ry="18"/>
<text text-anchor="middle" x="2364.01" y="-1009.6" font-family="Times,serif" font-size="14.00">data/forGiantOak3/rates2.tsv</text>
</g>
<!-- node_17 -->
<g id="node38" class="node"><title>node_17</title>
<ellipse fill="#367f57" stroke="black" cx="2002.88" cy="-1283.8" rx="108.856" ry="18"/>
<text text-anchor="middle" x="2002.88" y="-1279.6" font-family="Times,serif" font-size="14.00">2011.q1&#45;q4.singlefile.csv</text>
</g>
<!-- node_17&#45;&gt;node_50 -->
<g id="edge52" class="edge"><title>node_17&#45;&gt;node_50</title>
<path fill="none" stroke="black" d="M2082.95,-1296.07C2113.13,-1300.73 2147.87,-1306.05 2179.43,-1310.8 2209.35,-1315.3 2242.03,-1320.13 2271.41,-1324.45"/>
<polygon fill="black" stroke="black" points="2271.26,-1327.96 2281.66,-1325.95 2272.27,-1321.04 2271.26,-1327.96"/>
</g>
<!-- node_17&#45;&gt;node_48 -->
<g id="edge34" class="edge"><title>node_17&#45;&gt;node_48</title>
<path fill="none" stroke="black" d="M2112.12,-1283.8C2153.99,-1283.8 2202.04,-1283.8 2244.82,-1283.8"/>
<polygon fill="black" stroke="black" points="2245,-1287.3 2255,-1283.8 2245,-1280.3 2245,-1287.3"/>
</g>
<!-- node_49 -->
<g id="node64" class="node"><title>node_49</title>
<ellipse fill="#367f57" stroke="black" cx="2364.01" cy="-1229.8" rx="108.856" ry="18"/>
<text text-anchor="middle" x="2364.01" y="-1225.6" font-family="Times,serif" font-size="14.00">2013.q1&#45;q4.singlefile.csv</text>
</g>
<!-- node_17&#45;&gt;node_49 -->
<g id="edge44" class="edge"><title>node_17&#45;&gt;node_49</title>
<path fill="none" stroke="black" d="M2082.95,-1271.53C2113.13,-1266.87 2147.87,-1261.55 2179.43,-1256.8 2209.35,-1252.3 2242.03,-1247.47 2271.41,-1243.15"/>
<polygon fill="black" stroke="black" points="2272.27,-1246.56 2281.66,-1241.65 2271.26,-1239.64 2272.27,-1246.56"/>
</g>
<!-- node_26 -->
<g id="node39" class="node"><title>node_26</title>
<ellipse fill="#367f57" stroke="black" cx="1636.95" cy="-126.8" rx="189.245" ry="18"/>
<text text-anchor="middle" x="1636.95" y="-122.6" font-family="Times,serif" font-size="14.00">census_2000_msa_industry_gender_wage.csv</text>
</g>
<!-- node_26&#45;&gt;cluster_3 -->
<g id="edge12" class="edge"><title>node_26&#45;&gt;cluster_3</title>
<path fill="none" stroke="black" d="M1792.88,-137.175C1804.71,-141.46 1816.03,-146.911 1826.32,-153.8 1925.41,-220.098 1976.54,-362.852 1994.39,-423.087"/>
<polygon fill="black" stroke="black" points="1991.12,-424.369 1997.25,-433.01 1997.84,-422.432 1991.12,-424.369"/>
</g>
<!-- node_6 -->
<g id="node41" class="node"><title>node_6</title>
<ellipse fill="#1fff84" stroke="black" cx="193.118" cy="-467.8" rx="193.236" ry="18"/>
<text text-anchor="middle" x="193.118" y="-463.6" font-family="Times,serif" font-size="14.00">data/forGiantOak3/doc&#45;provider&#45;timestamp.tsv</text>
</g>
<!-- node_6&#45;&gt;node_52 -->
<g id="edge32" class="edge"><title>node_6&#45;&gt;node_52</title>
<path fill="none" stroke="black" d="M210.227,-449.81C284.526,-368.917 604.754,-42.8 938.451,-42.8 938.451,-42.8 938.451,-42.8 1637.95,-42.8 1835.71,-42.8 2063.82,-42.8 2210.54,-42.8"/>
<polygon fill="black" stroke="black" points="2210.96,-46.3001 2220.96,-42.8 2210.96,-39.3001 2210.96,-46.3001"/>
</g>
<!-- node_6&#45;&gt;node_56 -->
<g id="edge22" class="edge"><title>node_6&#45;&gt;node_56</title>
<path fill="none" stroke="black" d="M2003.88,-1013.8C2089.81,-1013.8 2097.07,-1070.3 2179.43,-1094.8 2202.9,-1101.78 2228.63,-1107 2253.19,-1110.88"/>
<polygon fill="black" stroke="black" points="2252.86,-1114.37 2263.27,-1112.41 2253.91,-1107.45 2252.86,-1114.37"/>
</g>
<!-- node_6&#45;&gt;node_53 -->
<g id="edge20" class="edge"><title>node_6&#45;&gt;node_53</title>
<path fill="none" stroke="black" d="M2003.88,-1013.8C2082.82,-1013.8 2101.37,-1029.06 2179.43,-1040.8 2208.07,-1045.11 2239.23,-1049.72 2267.62,-1053.89"/>
<polygon fill="black" stroke="black" points="2267.13,-1057.36 2277.53,-1055.35 2268.15,-1050.43 2267.13,-1057.36"/>
</g>
<!-- node_6&#45;&gt;node_8 -->
<g id="edge27" class="edge"><title>node_6&#45;&gt;node_8</title>
<path fill="none" stroke="black" d="M386.32,-467.8C394.844,-467.8 403.364,-467.8 411.813,-467.8"/>
<polygon fill="black" stroke="black" points="412.08,-471.3 422.08,-467.8 412.08,-464.3 412.08,-471.3"/>
</g>
<!-- node_6&#45;&gt;node_55 -->
<g id="edge3" class="edge"><title>node_6&#45;&gt;node_55</title>
<path fill="none" stroke="black" d="M2003.88,-1013.8C2078.9,-1013.8 2162.74,-1013.8 2230.53,-1013.8"/>
<polygon fill="black" stroke="black" points="2230.84,-1017.3 2240.84,-1013.8 2230.84,-1010.3 2230.84,-1017.3"/>
</g>
<!-- node_54 -->
<g id="node54" class="node"><title>node_54</title>
<ellipse fill="#1fff84" stroke="black" cx="2364.01" cy="-959.8" rx="161.464" ry="18"/>
<text text-anchor="middle" x="2364.01" y="-955.6" font-family="Times,serif" font-size="14.00">data/forGiantOak3/phone_numbers.tsv</text>
</g>
<!-- node_6&#45;&gt;node_54 -->
<g id="edge51" class="edge"><title>node_6&#45;&gt;node_54</title>
<path fill="none" stroke="black" d="M2003.88,-1013.8C2082.82,-1013.8 2101.37,-998.543 2179.43,-986.8 2203.79,-983.136 2229.97,-979.251 2254.72,-975.606"/>
<polygon fill="black" stroke="black" points="2255.48,-979.032 2264.86,-974.113 2254.46,-972.107 2255.48,-979.032"/>
</g>
<!-- node_51 -->
<g id="node59" class="node"><title>node_51</title>
<ellipse fill="#1fff84" stroke="black" cx="2364.01" cy="-905.8" rx="163.157" ry="18"/>
<text text-anchor="middle" x="2364.01" y="-901.6" font-family="Times,serif" font-size="14.00">data/forGiantOak3/email_addresses.tsv</text>
</g>
<!-- node_6&#45;&gt;node_51 -->
<g id="edge21" class="edge"><title>node_6&#45;&gt;node_51</title>
<path fill="none" stroke="black" d="M350.734,-478.207C363.237,-482.462 375.258,-487.899 386.236,-494.8 410.656,-510.151 403.374,-526.978 422.236,-548.8 624.162,-782.412 629.665,-1013.8 938.451,-1013.8 938.451,-1013.8 938.451,-1013.8 1280.08,-1013.8 1600.88,-1013.8 1681.08,-1013.8 2001.88,-1013.8"/>
<path fill="none" stroke="black" d="M2003.88,-1013.8C2089.81,-1013.8 2097.07,-957.302 2179.43,-932.8 2196.97,-927.583 2215.76,-923.352 2234.38,-919.926"/>
<polygon fill="black" stroke="black" points="2235.16,-923.343 2244.4,-918.156 2233.94,-916.449 2235.16,-923.343"/>
</g>
<!-- node_41 -->
<g id="node42" class="node"><title>node_41</title>
<ellipse fill="#367f57" stroke="black" cx="2002.88" cy="-2093.8" rx="133.63" ry="18"/>
<text text-anchor="middle" x="2002.88" y="-2089.6" font-family="Times,serif" font-size="14.00">zero_price_msa_aggregates.csv</text>
</g>
<!-- cluster_11 -->
<g id="node60" class="node"><title>cluster_11</title>
<ellipse fill="#bc91ff" stroke="black" cx="2364.01" cy="-2086.8" rx="56.1782" ry="18"/>
<text text-anchor="middle" x="2364.01" y="-2082.6" font-family="Times,serif" font-size="14.00">zp_analysis</text>
</g>
<!-- node_41&#45;&gt;cluster_11 -->
<g id="edge35" class="edge"><title>node_41&#45;&gt;cluster_11</title>
<path fill="none" stroke="black" d="M2135.31,-2091.24C2190.5,-2090.16 2252.23,-2088.96 2297.48,-2088.08"/>
<polygon fill="black" stroke="black" points="2297.82,-2091.57 2307.75,-2087.88 2297.68,-2084.57 2297.82,-2091.57"/>
</g>
<!-- node_36&#45;&gt;cluster_4 -->
<g id="edge47" class="edge"><title>node_36&#45;&gt;cluster_4</title>
<path fill="none" stroke="black" d="M1735.42,-675.306C1765,-679.341 1797.33,-685.233 1826.32,-693.8 1878.55,-709.233 1935.09,-737.639 1969.5,-756.375"/>
<polygon fill="black" stroke="black" points="1968.15,-759.627 1978.6,-761.385 1971.53,-753.495 1968.15,-759.627"/>
</g>
<!-- node_36&#45;&gt;cluster_3 -->
<g id="edge13" class="edge"><title>node_36&#45;&gt;cluster_3</title>
<path fill="none" stroke="black" d="M1747.46,-663.751C1774.37,-659.652 1802.32,-652.366 1826.32,-639.8 1900.43,-600.999 1959.86,-518.196 1986.57,-476.262"/>
<polygon fill="black" stroke="black" points="1989.58,-478.059 1991.92,-467.725 1983.64,-474.344 1989.58,-478.059"/>
</g>
<!-- node_37&#45;&gt;cluster_9 -->
<g id="edge50" class="edge"><title>node_37&#45;&gt;cluster_9</title>
<path fill="none" stroke="black" d="M2126.47,-851.8C2193.72,-851.8 2272.87,-851.8 2320.43,-851.8"/>
<polygon fill="black" stroke="black" points="2320.66,-855.3 2330.66,-851.8 2320.66,-848.3 2320.66,-855.3"/>
</g>
<!-- node_42 -->
<g id="node45" class="node"><title>node_42</title>
<ellipse fill="#89cdff" stroke="black" cx="2002.88" cy="-2039.8" rx="91.5107" ry="18"/>
<text text-anchor="middle" x="2002.88" y="-2035.6" font-family="Times,serif" font-size="14.00">msa_level_analysis.r</text>
</g>
<!-- node_42&#45;&gt;cluster_11 -->
<g id="edge36" class="edge"><title>node_42&#45;&gt;cluster_11</title>
<path fill="none" stroke="black" d="M2079.6,-2049.71C2145.69,-2058.36 2240.36,-2070.75 2301.77,-2078.78"/>
<polygon fill="black" stroke="black" points="2301.33,-2082.26 2311.7,-2080.09 2302.24,-2075.32 2301.33,-2082.26"/>
</g>
<!-- node_28 -->
<g id="node46" class="node"><title>node_28</title>
<ellipse fill="#367f57" stroke="black" cx="1636.95" cy="-612.8" rx="38.8017" ry="18"/>
<text text-anchor="middle" x="1636.95" y="-608.6" font-family="Times,serif" font-size="14.00">acs.csv</text>
</g>
<!-- node_28&#45;&gt;cluster_3 -->
<g id="edge14" class="edge"><title>node_28&#45;&gt;cluster_3</title>
<path fill="none" stroke="black" d="M1675.91,-612.952C1715.06,-611.848 1777.16,-606.527 1826.32,-585.8 1889.03,-559.365 1948.95,-504.949 1979.96,-473.881"/>
<polygon fill="black" stroke="black" points="1982.68,-476.1 1987.2,-466.517 1977.69,-471.191 1982.68,-476.1"/>
</g>
<!-- cluster_2 -->
<g id="node48" class="node"><title>cluster_2</title>
<ellipse fill="#bc91ff" stroke="black" cx="577.283" cy="-1059.8" rx="31.3179" ry="18"/>
<text text-anchor="middle" x="577.283" y="-1055.6" font-family="Times,serif" font-size="14.00">clean</text>
</g>
<!-- node_27 -->
<g id="node49" class="node"><title>node_27</title>
<ellipse fill="#367f57" stroke="black" cx="1636.95" cy="-558.8" rx="139.459" ry="18"/>
<text text-anchor="middle" x="1636.95" y="-554.6" font-family="Times,serif" font-size="14.00">acs_2013_msa_gender_wage.csv</text>
</g>
<!-- node_27&#45;&gt;cluster_3 -->
<g id="edge15" class="edge"><title>node_27&#45;&gt;cluster_3</title>
<path fill="none" stroke="black" d="M1750.16,-548.156C1775.51,-544.255 1802.09,-538.962 1826.32,-531.8 1879.73,-516.019 1937.64,-486.674 1971.79,-467.973"/>
<polygon fill="black" stroke="black" points="1973.72,-470.907 1980.77,-463.001 1970.33,-464.783 1973.72,-470.907"/>
</g>
<!-- node_18&#45;&gt;cluster_4 -->
<g id="edge48" class="edge"><title>node_18&#45;&gt;cluster_4</title>
<path fill="none" stroke="black" d="M1717.26,-817.617C1750.91,-812.824 1790.54,-807.116 1826.32,-801.8 1871.44,-795.098 1923.02,-787.128 1958.54,-781.592"/>
<polygon fill="black" stroke="black" points="1959.22,-785.027 1968.56,-780.027 1958.14,-778.111 1959.22,-785.027"/>
</g>
<!-- node_18&#45;&gt;node_37 -->
<g id="edge39" class="edge"><title>node_18&#45;&gt;node_37</title>
<path fill="none" stroke="black" d="M1733.09,-834.813C1777.73,-837.634 1831.46,-841.03 1879.11,-844.041"/>
<polygon fill="black" stroke="black" points="1878.98,-847.54 1889.19,-844.678 1879.43,-840.554 1878.98,-847.54"/>
</g>
<!-- node_18&#45;&gt;cluster_3 -->
<g id="edge16" class="edge"><title>node_18&#45;&gt;cluster_3</title>
<path fill="none" stroke="black" d="M1737.55,-831.976C1768.36,-828.607 1800.87,-820.156 1826.32,-801.8 1840.97,-791.243 1951.68,-557.6 1989.37,-477.48"/>
<polygon fill="black" stroke="black" points="1992.7,-478.611 1993.79,-468.071 1986.37,-475.634 1992.7,-478.611"/>
</g>
<!-- node_15 -->
<g id="node52" class="node"><title>node_15</title>
<ellipse fill="#19cc69" stroke="black" cx="2364.01" cy="-2140.8" rx="91.5223" ry="18"/>
<text text-anchor="middle" x="2364.01" y="-2136.6" font-family="Times,serif" font-size="14.00">36120&#45;0005&#45;Data.txt</text>
</g>
<!-- node_35 -->
<g id="node53" class="node"><title>node_35</title>
<ellipse fill="#367f57" stroke="black" cx="1636.95" cy="-504.8" rx="90.2868" ry="18"/>
<text text-anchor="middle" x="1636.95" y="-500.6" font-family="Times,serif" font-size="14.00">cpi_crosssection.csv</text>
</g>
<!-- node_35&#45;&gt;cluster_3 -->
<g id="edge17" class="edge"><title>node_35&#45;&gt;cluster_3</title>
<path fill="none" stroke="black" d="M1711.33,-494.46C1746.19,-489.503 1788.42,-483.432 1826.32,-477.8 1873.8,-470.748 1928.43,-462.291 1963.98,-456.744"/>
<polygon fill="black" stroke="black" points="1964.58,-460.192 1973.92,-455.19 1963.5,-453.276 1964.58,-460.192"/>
</g>
<!-- node_1 -->
<g id="node55" class="node"><title>node_1</title>
<ellipse fill="#367f57" stroke="black" cx="2364.01" cy="-2194.8" rx="107.1" ry="18"/>
<text text-anchor="middle" x="2364.01" y="-2190.6" font-family="Times,serif" font-size="14.00">crosswalk_tract_msa.csv</text>
</g>
<!-- cluster_3&#45;&gt;cluster_0 -->
<g id="edge2" class="edge"><title>cluster_3&#45;&gt;cluster_0</title>
<path fill="none" stroke="black" d="M2027.16,-461.304C2087.38,-488.469 2248.77,-561.268 2323.74,-595.084"/>
<polygon fill="black" stroke="black" points="2322.32,-598.281 2332.87,-599.203 2325.19,-591.9 2322.32,-598.281"/>
</g>
<!-- node_45 -->
<g id="node57" class="node"><title>node_45</title>
<ellipse fill="#367f57" stroke="black" cx="2002.88" cy="-1823.8" rx="69.5235" ry="18"/>
<text text-anchor="middle" x="2002.88" y="-1819.6" font-family="Times,serif" font-size="14.00">all_merged.csv</text>
</g>
<!-- node_45&#45;&gt;cluster_13 -->
<g id="edge42" class="edge"><title>node_45&#45;&gt;cluster_13</title>
<path fill="none" stroke="black" d="M2072.7,-1823.8C2143.55,-1823.8 2252.15,-1823.8 2314.49,-1823.8"/>
<polygon fill="black" stroke="black" points="2314.82,-1827.3 2324.82,-1823.8 2314.82,-1820.3 2314.82,-1827.3"/>
</g>
<!-- node_2 -->
<g id="node58" class="node"><title>node_2</title>
<ellipse fill="#367f57" stroke="black" cx="2364.01" cy="-2248.8" rx="86.2756" ry="18"/>
<text text-anchor="middle" x="2364.01" y="-2244.6" font-family="Times,serif" font-size="14.00">ucr_lemas_msa.csv</text>
</g>
<!-- node_47 -->
<g id="node61" class="node"><title>node_47</title>
<ellipse fill="#3cadff" stroke="black" cx="2002.88" cy="-1769.8" rx="67.7178" ry="18"/>
<text text-anchor="middle" x="2002.88" y="-1765.6" font-family="Times,serif" font-size="14.00">zero_prices.py</text>
</g>
<!-- node_47&#45;&gt;cluster_13 -->
<g id="edge43" class="edge"><title>node_47&#45;&gt;cluster_13</title>
<path fill="none" stroke="black" d="M2061.58,-1778.77C2095.82,-1784.07 2140.09,-1790.88 2179.43,-1796.8 2226.17,-1803.83 2279.63,-1811.67 2316.76,-1817.08"/>
<polygon fill="black" stroke="black" points="2316.38,-1820.56 2326.78,-1818.54 2317.39,-1813.64 2316.38,-1820.56"/>
</g>
<!-- node_12 -->
<g id="node62" class="node"><title>node_12</title>
<ellipse fill="#19cc69" stroke="black" cx="2364.01" cy="-2302.8" rx="53.8735" ry="18"/>
<text text-anchor="middle" x="2364.01" y="-2298.6" font-family="Times,serif" font-size="14.00">cols_18.txt</text>
</g>
<!-- node_7 -->
<g id="node63" class="node"><title>node_7</title>
<ellipse fill="#1fff84" stroke="black" cx="939.451" cy="-1113.8" rx="171.243" ry="18"/>
<text text-anchor="middle" x="939.451" y="-1109.6" font-family="Times,serif" font-size="14.00">data/forGiantOak3/ismassageparlorad.tsv</text>
</g>
<!-- node_34 -->
<g id="node65" class="node"><title>node_34</title>
<ellipse fill="#367f57" stroke="black" cx="1636.95" cy="-720.8" rx="131.377" ry="18"/>
<text text-anchor="middle" x="1636.95" y="-716.6" font-family="Times,serif" font-size="14.00">msa_month_characteristics.csv</text>
</g>
<!-- node_34&#45;&gt;node_37 -->
<g id="edge40" class="edge"><title>node_34&#45;&gt;node_37</title>
<path fill="none" stroke="black" d="M1766.22,-724.442C1787.4,-729.082 1808.3,-736.434 1826.32,-747.8 1850.72,-763.185 1839.6,-784.037 1862.32,-801.8 1880.26,-815.819 1902.46,-826.119 1923.84,-833.597"/>
<polygon fill="black" stroke="black" points="1922.99,-837.004 1933.59,-836.837 1925.2,-830.361 1922.99,-837.004"/>
</g>
<!-- node_34&#45;&gt;cluster_3 -->
<g id="edge18" class="edge"><title>node_34&#45;&gt;cluster_3</title>
<path fill="none" stroke="black" d="M1765.37,-716.692C1786.76,-712.119 1807.95,-704.91 1826.32,-693.8 1912.55,-641.673 1968.76,-529.419 1991.04,-477.788"/>
<polygon fill="black" stroke="black" points="1994.38,-478.88 1995.04,-468.306 1987.93,-476.157 1994.38,-478.88"/>
</g>
<!-- node_13 -->
<g id="node66" class="node"><title>node_13</title>
<ellipse fill="#19cc69" stroke="black" cx="2364.01" cy="-2356.8" rx="91.5223" ry="18"/>
<text text-anchor="middle" x="2364.01" y="-2352.6" font-family="Times,serif" font-size="14.00">35036&#45;0001&#45;Data.txt</text>
</g>
<!-- node_5 -->
<g id="node67" class="node"><title>node_5</title>
<ellipse fill="#367f57" stroke="black" cx="2364.01" cy="-2410.8" rx="128.43" ry="18"/>
<text text-anchor="middle" x="2364.01" y="-2406.6" font-family="Times,serif" font-size="14.00">data/TGG/provider_prices.csv</text>
</g>
<!-- cluster_1 -->
<g id="node68" class="node"><title>cluster_1</title>
<ellipse fill="#bc91ff" stroke="black" cx="193.118" cy="-629.8" rx="42.8538" ry="18"/>
<text text-anchor="middle" x="193.118" y="-625.6" font-family="Times,serif" font-size="14.00">cleanish</text>
</g>
<!-- node_24 -->
<g id="node69" class="node"><title>node_24</title>
<ellipse fill="#3cadff" stroke="black" cx="1279.08" cy="-766.8" rx="132.507" ry="18"/>
<text text-anchor="middle" x="1279.08" y="-762.6" font-family="Times,serif" font-size="14.00">make_phone_characteristics.py</text>
</g>
<!-- node_24&#45;&gt;node_23 -->
<g id="edge33" class="edge"><title>node_24&#45;&gt;node_23</title>
<path fill="none" stroke="black" d="M1410.07,-769.722C1445.31,-770.514 1483.26,-771.367 1517.81,-772.144"/>
<polygon fill="black" stroke="black" points="1517.86,-775.646 1527.93,-772.372 1518.01,-768.648 1517.86,-775.646"/>
</g>
<!-- node_40 -->
<g id="node70" class="node"><title>node_40</title>
<ellipse fill="#89cdff" stroke="black" cx="2002.88" cy="-1931.8" rx="74.703" ry="18"/>
<text text-anchor="middle" x="2002.88" y="-1927.6" font-family="Times,serif" font-size="14.00">monthly_panel.r</text>
</g>
<!-- node_40&#45;&gt;cluster_10 -->
<g id="edge29" class="edge"><title>node_40&#45;&gt;cluster_10</title>
<path fill="none" stroke="black" d="M2077.42,-1933.23C2138.27,-1934.42 2224.41,-1936.1 2286.15,-1937.3"/>
<polygon fill="black" stroke="black" points="2286.16,-1940.8 2296.23,-1937.5 2286.3,-1933.8 2286.16,-1940.8"/>
</g>
<!-- node_32 -->
<g id="node71" class="node"><title>node_32</title>
<ellipse fill="#367f57" stroke="black" cx="1636.95" cy="-450.8" rx="83.3481" ry="18"/>
<text text-anchor="middle" x="1636.95" y="-446.6" font-family="Times,serif" font-size="14.00">violence_nibrs.csv</text>
</g>
<!-- node_32&#45;&gt;cluster_3 -->
<g id="edge19" class="edge"><title>node_32&#45;&gt;cluster_3</title>
<path fill="none" stroke="black" d="M1720.53,-450.8C1796.34,-450.8 1905.36,-450.8 1962.89,-450.8"/>
<polygon fill="black" stroke="black" points="1963.02,-454.3 1973.02,-450.8 1963.02,-447.3 1963.02,-454.3"/>
</g>
<!-- node_22 -->
<g id="node73" class="node"><title>node_22</title>
<ellipse fill="#3cadff" stroke="black" cx="577.283" cy="-521.8" rx="85.6999" ry="18"/>
<text text-anchor="middle" x="577.283" y="-517.6" font-family="Times,serif" font-size="14.00">make_ad_prices.py</text>
</g>
<!-- node_22&#45;&gt;node_21 -->
<g id="edge31" class="edge"><title>node_22&#45;&gt;node_21</title>
<path fill="none" stroke="black" d="M658.664,-515.774C708.629,-512.029 773.546,-507.162 828.27,-503.06"/>
<polygon fill="black" stroke="black" points="828.653,-506.541 838.364,-502.303 828.13,-499.561 828.653,-506.541"/>
</g>
</g>
</svg>
