<?xml version="1.0" encoding="UTF-8" standalone="no"?>
<!DOCTYPE svg PUBLIC "-//W3C//DTD SVG 1.1//EN"
 "http://www.w3.org/Graphics/SVG/1.1/DTD/svg11.dtd">
<!-- Generated by graphviz version 2.38.0 (20140413.2041)
 -->
<!-- Title: Make_Targets Pages: 1 -->
<svg width="2254pt" height="2089pt"
 viewBox="0.00 0.00 2253.99 2088.80" xmlns="http://www.w3.org/2000/svg" xmlns:xlink="http://www.w3.org/1999/xlink">
<g id="graph0" class="graph" transform="scale(1 1) rotate(0) translate(4 2084.8)">
<title>Make_Targets</title>
<polygon fill="white" stroke="none" points="-4,4 -4,-2084.8 2249.99,-2084.8 2249.99,4 -4,4"/>
<text text-anchor="middle" x="1123" y="-8.2" font-family="Times,serif" font-size="14.00">Makefile Target Order</text>
<!-- node_49 -->
<g id="node1" class="node"><title>node_49</title>
<ellipse fill="#bc91ff" stroke="black" cx="593.358" cy="-242.8" rx="67.776" ry="18"/>
<text text-anchor="middle" x="593.358" y="-238.6" font-family="Times,serif" font-size="14.00">panel_analysis</text>
</g>
<!-- node_67 -->
<g id="node2" class="node"><title>node_67</title>
<ellipse fill="#1fff84" stroke="black" cx="593.358" cy="-712.8" rx="118.656" ry="18"/>
<text text-anchor="middle" x="593.358" y="-708.6" font-family="Times,serif" font-size="14.00">data/forGiantOak3/links.tsv</text>
</g>
<!-- node_69 -->
<g id="node3" class="node"><title>node_69</title>
<ellipse fill="#1fff84" stroke="black" cx="593.358" cy="-496.8" rx="122.709" ry="18"/>
<text text-anchor="middle" x="593.358" y="-492.6" font-family="Times,serif" font-size="14.00">data/forGiantOak3/rates2.tsv</text>
</g>
<!-- node_66 -->
<g id="node4" class="node"><title>node_66</title>
<ellipse fill="#1fff84" stroke="black" cx="593.358" cy="-1036.8" rx="142.936" ry="18"/>
<text text-anchor="middle" x="593.358" y="-1032.6" font-family="Times,serif" font-size="14.00">data/forGiantOak3/ids_to_urls.tsv</text>
</g>
<!-- node_51 -->
<g id="node5" class="node"><title>node_51</title>
<ellipse fill="#89cdff" stroke="black" cx="193.118" cy="-269.8" rx="74.703" ry="18"/>
<text text-anchor="middle" x="193.118" y="-265.6" font-family="Times,serif" font-size="14.00">monthly_panel.r</text>
</g>
<!-- node_51&#45;&gt;node_49 -->
<g id="edge45" class="edge"><title>node_51&#45;&gt;node_49</title>
<path fill="none" stroke="black" d="M265.315,-264.973C336.218,-260.166 444.646,-252.815 516.98,-247.911"/>
<polygon fill="black" stroke="black" points="517.641,-251.374 527.382,-247.205 517.168,-244.39 517.641,-251.374"/>
</g>
<!-- node_6 -->
<g id="node6" class="node"><title>node_6</title>
<ellipse fill="#367f57" stroke="black" cx="193.118" cy="-901.8" rx="107.1" ry="18"/>
<text text-anchor="middle" x="193.118" y="-897.6" font-family="Times,serif" font-size="14.00">crosswalk_tract_msa.csv</text>
</g>
<!-- node_59 -->
<g id="node7" class="node"><title>node_59</title>
<ellipse fill="#367f57" stroke="black" cx="193.118" cy="-1144.8" rx="69.5235" ry="18"/>
<text text-anchor="middle" x="193.118" y="-1140.6" font-family="Times,serif" font-size="14.00">all_merged.csv</text>
</g>
<!-- node_58 -->
<g id="node46" class="node"><title>node_58</title>
<ellipse fill="#bc91ff" stroke="black" cx="593.358" cy="-1090.8" rx="38.8632" ry="18"/>
<text text-anchor="middle" x="593.358" y="-1086.6" font-family="Times,serif" font-size="14.00">tempus</text>
</g>
<!-- node_59&#45;&gt;node_58 -->
<g id="edge50" class="edge"><title>node_59&#45;&gt;node_58</title>
<path fill="none" stroke="black" d="M255.47,-1136.48C335.429,-1125.64 473.522,-1106.91 545.561,-1097.15"/>
<polygon fill="black" stroke="black" points="546.257,-1100.58 555.696,-1095.77 545.316,-1093.65 546.257,-1100.58"/>
</g>
<!-- node_17 -->
<g id="node8" class="node"><title>node_17</title>
<ellipse fill="#19cc69" stroke="black" cx="193.118" cy="-1198.8" rx="53.8735" ry="18"/>
<text text-anchor="middle" x="193.118" y="-1194.6" font-family="Times,serif" font-size="14.00">cols_17.txt</text>
</g>
<!-- node_31 -->
<g id="node9" class="node"><title>node_31</title>
<ellipse fill="#367f57" stroke="black" cx="967.314" cy="-874.8" rx="109.95" ry="18"/>
<text text-anchor="middle" x="967.314" y="-870.6" font-family="Times,serif" font-size="14.00">phone_characteristics.csv</text>
</g>
<!-- node_4 -->
<g id="node58" class="node"><title>node_4</title>
<ellipse fill="#bc91ff" stroke="black" cx="1993.19" cy="-647.8" rx="35.9154" ry="18"/>
<text text-anchor="middle" x="1993.19" y="-643.6" font-family="Times,serif" font-size="14.00">export</text>
</g>
<!-- node_31&#45;&gt;node_4 -->
<g id="edge37" class="edge"><title>node_31&#45;&gt;node_4</title>
<path fill="none" stroke="black" d="M1075.45,-871.386C1294.14,-863.475 1776.22,-840.864 1833.81,-793.8 1876.59,-758.834 1829.27,-712.346 1869.81,-674.8 1890.5,-655.633 1921.62,-648.954 1947.3,-647.031"/>
<polygon fill="black" stroke="black" points="1947.77,-650.512 1957.57,-646.487 1947.39,-643.521 1947.77,-650.512"/>
</g>
<!-- node_46 -->
<g id="node10" class="node"><title>node_46</title>
<ellipse fill="#bc91ff" stroke="black" cx="1644.43" cy="-896.8" rx="138.306" ry="18"/>
<text text-anchor="middle" x="1644.43" y="-892.6" font-family="Times,serif" font-size="14.00">reports/usage/usage&#45;report&#45;do.do</text>
</g>
<!-- node_45 -->
<g id="node37" class="node"><title>node_45</title>
<ellipse fill="#367f57" stroke="black" cx="1993.19" cy="-789.8" rx="123.277" ry="18"/>
<text text-anchor="middle" x="1993.19" y="-785.6" font-family="Times,serif" font-size="14.00">reports/usage/graph_data.csv</text>
</g>
<!-- node_46&#45;&gt;node_45 -->
<g id="edge38" class="edge"><title>node_46&#45;&gt;node_45</title>
<path fill="none" stroke="black" d="M1770.33,-889.268C1792.56,-884.198 1814.69,-876.461 1833.81,-864.8 1856.57,-850.912 1847.39,-831.24 1869.81,-816.8 1876.84,-812.269 1884.52,-808.491 1892.5,-805.34"/>
<polygon fill="black" stroke="black" points="1893.76,-808.607 1901.98,-801.923 1891.38,-802.022 1893.76,-808.607"/>
</g>
<!-- node_36 -->
<g id="node11" class="node"><title>node_36</title>
<ellipse fill="#367f57" stroke="black" cx="1644.43" cy="-312.8" rx="38.8017" ry="18"/>
<text text-anchor="middle" x="1644.43" y="-308.6" font-family="Times,serif" font-size="14.00">acs.csv</text>
</g>
<!-- node_3 -->
<g id="node57" class="node"><title>node_3</title>
<ellipse fill="#bc91ff" stroke="black" cx="1993.19" cy="-381.8" rx="29.6127" ry="18"/>
<text text-anchor="middle" x="1993.19" y="-377.6" font-family="Times,serif" font-size="14.00">local</text>
</g>
<!-- node_36&#45;&gt;node_3 -->
<g id="edge23" class="edge"><title>node_36&#45;&gt;node_3</title>
<path fill="none" stroke="black" d="M1683.18,-311.244C1721.37,-314.628 1782.01,-324.238 1833.81,-335.8 1850.01,-339.418 1853.69,-341.788 1869.81,-345.8 1900.11,-353.344 1934.89,-360.915 1959.62,-367.696"/>
<polygon fill="black" stroke="black" points="1958.98,-371.154 1969.55,-370.552 1960.91,-364.426 1958.98,-371.154"/>
</g>
<!-- node_36&#45;&gt;node_3 -->
<g id="edge25" class="edge"><title>node_36&#45;&gt;node_3</title>
<path fill="none" stroke="black" d="M1675.96,-323.342C1713.38,-331.375 1778.61,-341.479 1833.81,-353.8 1850.01,-357.418 1853.69,-359.788 1869.81,-363.8 1897.58,-370.715 1929.12,-377.652 1953.23,-381.542"/>
<polygon fill="black" stroke="black" points="1953,-385.047 1963.41,-383.059 1954.03,-378.123 1953,-385.047"/>
</g>
<!-- node_53 -->
<g id="node12" class="node"><title>node_53</title>
<ellipse fill="#367f57" stroke="black" cx="193.118" cy="-1306.8" rx="133.63" ry="18"/>
<text text-anchor="middle" x="193.118" y="-1302.6" font-family="Times,serif" font-size="14.00">zero_price_msa_aggregates.csv</text>
</g>
<!-- node_52 -->
<g id="node41" class="node"><title>node_52</title>
<ellipse fill="#bc91ff" stroke="black" cx="593.358" cy="-1279.8" rx="56.1782" ry="18"/>
<text text-anchor="middle" x="593.358" y="-1275.6" font-family="Times,serif" font-size="14.00">zp_analysis</text>
</g>
<!-- node_53&#45;&gt;node_52 -->
<g id="edge46" class="edge"><title>node_53&#45;&gt;node_52</title>
<path fill="none" stroke="black" d="M312.794,-1298.75C383.401,-1293.97 470.229,-1288.08 528.21,-1284.15"/>
<polygon fill="black" stroke="black" points="528.592,-1287.63 538.332,-1283.46 528.118,-1280.65 528.592,-1287.63"/>
</g>
<!-- node_50 -->
<g id="node13" class="node"><title>node_50</title>
<ellipse fill="#367f57" stroke="black" cx="193.118" cy="-215.8" rx="84.0155" ry="18"/>
<text text-anchor="middle" x="193.118" y="-211.6" font-family="Times,serif" font-size="14.00">monthly_panel.csv</text>
</g>
<!-- node_50&#45;&gt;node_49 -->
<g id="edge44" class="edge"><title>node_50&#45;&gt;node_49</title>
<path fill="none" stroke="black" d="M273.751,-221.199C344.712,-226.01 447.801,-232.999 517.328,-237.713"/>
<polygon fill="black" stroke="black" points="517.121,-241.207 527.335,-238.392 517.594,-234.223 517.121,-241.207"/>
</g>
<!-- node_21 -->
<g id="node14" class="node"><title>node_21</title>
<ellipse fill="#19cc69" stroke="black" cx="193.118" cy="-1360.8" rx="91.5223" ry="18"/>
<text text-anchor="middle" x="193.118" y="-1356.6" font-family="Times,serif" font-size="14.00">35036&#45;0001&#45;Data.txt</text>
</g>
<!-- node_18 -->
<g id="node15" class="node"><title>node_18</title>
<ellipse fill="#bc91ff" stroke="black" cx="193.118" cy="-1414.8" rx="67.1825" ry="18"/>
<text text-anchor="middle" x="193.118" y="-1410.6" font-family="Times,serif" font-size="14.00">usa_00017.dat</text>
</g>
<!-- node_23 -->
<g id="node16" class="node"><title>node_23</title>
<ellipse fill="#19cc69" stroke="black" cx="193.118" cy="-1468.8" rx="91.5223" ry="18"/>
<text text-anchor="middle" x="193.118" y="-1464.6" font-family="Times,serif" font-size="14.00">36120&#45;0005&#45;Data.txt</text>
</g>
<!-- node_2 -->
<g id="node17" class="node"><title>node_2</title>
<ellipse fill="#bc91ff" stroke="black" cx="1993.19" cy="-327.8" rx="31.3179" ry="18"/>
<text text-anchor="middle" x="1993.19" y="-323.6" font-family="Times,serif" font-size="14.00">clean</text>
</g>
<!-- node_0 -->
<g id="node18" class="node"><title>node_0</title>
<ellipse fill="#bc91ff" stroke="black" cx="2199.29" cy="-502.8" rx="46.9098" ry="18"/>
<text text-anchor="middle" x="2199.29" y="-498.6" font-family="Times,serif" font-size="14.00">.PHONY</text>
</g>
<!-- node_2&#45;&gt;node_0 -->
<g id="edge2" class="edge"><title>node_2&#45;&gt;node_0</title>
<path fill="none" stroke="black" d="M2024.74,-327.717C2051.41,-329.12 2089.92,-334.872 2116.58,-354.8 2156.85,-384.892 2179.81,-440.969 2190.6,-474.789"/>
<polygon fill="black" stroke="black" points="2187.3,-475.97 2193.56,-484.517 2193.99,-473.931 2187.3,-475.97"/>
</g>
<!-- node_10 -->
<g id="node19" class="node"><title>node_10</title>
<ellipse fill="#367f57" stroke="black" cx="193.118" cy="-1522.8" rx="128.43" ry="18"/>
<text text-anchor="middle" x="193.118" y="-1518.6" font-family="Times,serif" font-size="14.00">data/TGG/provider_prices.csv</text>
</g>
<!-- node_27 -->
<g id="node20" class="node"><title>node_27</title>
<ellipse fill="#3cadff" stroke="black" cx="1294.6" cy="-666.8" rx="124.415" ry="18"/>
<text text-anchor="middle" x="1294.6" y="-662.6" font-family="Times,serif" font-size="14.00">make_msa_characteristics.py</text>
</g>
<!-- node_26 -->
<g id="node26" class="node"><title>node_26</title>
<ellipse fill="#367f57" stroke="black" cx="1644.43" cy="-674.8" rx="101.857" ry="18"/>
<text text-anchor="middle" x="1644.43" y="-670.6" font-family="Times,serif" font-size="14.00">msa_characteristics.csv</text>
</g>
<!-- node_27&#45;&gt;node_26 -->
<g id="edge6" class="edge"><title>node_27&#45;&gt;node_26</title>
<path fill="none" stroke="black" d="M1417.75,-669.609C1455.23,-670.471 1496.25,-671.415 1532.91,-672.258"/>
<polygon fill="black" stroke="black" points="1533.05,-675.762 1543.13,-672.493 1533.21,-668.764 1533.05,-675.762"/>
</g>
<!-- node_63 -->
<g id="node21" class="node"><title>node_63</title>
<ellipse fill="#367f57" stroke="black" cx="593.358" cy="-1630.8" rx="108.856" ry="18"/>
<text text-anchor="middle" x="593.358" y="-1626.6" font-family="Times,serif" font-size="14.00">2013.q1&#45;q4.singlefile.csv</text>
</g>
<!-- node_8 -->
<g id="node22" class="node"><title>node_8</title>
<ellipse fill="#367f57" stroke="black" cx="593.358" cy="-874.8" rx="93.2222" ry="18"/>
<text text-anchor="middle" x="593.358" y="-870.6" font-family="Times,serif" font-size="14.00">data/bach/phones.csv</text>
</g>
<!-- node_8&#45;&gt;node_31 -->
<g id="edge17" class="edge"><title>node_8&#45;&gt;node_31</title>
<path fill="none" stroke="black" d="M686.78,-874.8C735.19,-874.8 795.035,-874.8 846.917,-874.8"/>
<polygon fill="black" stroke="black" points="847.181,-878.3 857.181,-874.8 847.181,-871.3 847.181,-878.3"/>
</g>
<!-- node_29 -->
<g id="node34" class="node"><title>node_29</title>
<ellipse fill="#367f57" stroke="black" cx="967.314" cy="-550.8" rx="111.095" ry="18"/>
<text text-anchor="middle" x="967.314" y="-546.6" font-family="Times,serif" font-size="14.00">ad_prices_price_level.csv</text>
</g>
<!-- node_8&#45;&gt;node_29 -->
<g id="edge14" class="edge"><title>node_8&#45;&gt;node_29</title>
<path fill="none" stroke="black" d="M686.641,-873.787C713.368,-870.013 741.505,-862.385 764.48,-847.8 869.21,-781.311 933.074,-638.741 956.324,-578.537"/>
<polygon fill="black" stroke="black" points="959.688,-579.537 959.952,-568.946 953.14,-577.061 959.688,-579.537"/>
</g>
<!-- node_28 -->
<g id="node23" class="node"><title>node_28</title>
<ellipse fill="#367f57" stroke="black" cx="1294.6" cy="-720.8" rx="97.214" ry="18"/>
<text text-anchor="middle" x="1294.6" y="-716.6" font-family="Times,serif" font-size="14.00">ad_price_ad_level.csv</text>
</g>
<!-- node_28&#45;&gt;node_26 -->
<g id="edge7" class="edge"><title>node_28&#45;&gt;node_26</title>
<path fill="none" stroke="black" d="M1374.1,-710.419C1426.91,-703.435 1496.74,-694.201 1552.05,-686.885"/>
<polygon fill="black" stroke="black" points="1552.75,-690.323 1562.21,-685.542 1551.83,-683.384 1552.75,-690.323"/>
</g>
<!-- node_28&#45;&gt;node_45 -->
<g id="edge39" class="edge"><title>node_28&#45;&gt;node_45</title>
<path fill="none" stroke="black" d="M1323.4,-738.022C1354.24,-756.031 1406.13,-783.131 1455.06,-793.8 1605.27,-826.548 1784.76,-815.46 1893.53,-803.414"/>
<polygon fill="black" stroke="black" points="1893.97,-806.887 1903.51,-802.284 1893.18,-799.932 1893.97,-806.887"/>
</g>
<!-- node_28&#45;&gt;node_4 -->
<g id="edge35" class="edge"><title>node_28&#45;&gt;node_4</title>
<path fill="none" stroke="black" d="M1390.14,-724.215C1522.24,-727.84 1754.74,-729.716 1833.81,-701.8 1852.67,-695.142 1851.63,-683.143 1869.81,-674.8 1894.35,-663.533 1923.87,-656.844 1947.77,-652.943"/>
<polygon fill="black" stroke="black" points="1948.61,-656.354 1957.97,-651.388 1947.56,-649.434 1948.61,-656.354"/>
</g>
<!-- node_48 -->
<g id="node24" class="node"><title>node_48</title>
<ellipse fill="#89cdff" stroke="black" cx="1993.19" cy="-843.8" rx="99.599" ry="18"/>
<text text-anchor="middle" x="1993.19" y="-839.6" font-family="Times,serif" font-size="14.00">reports/usage/graphs.R</text>
</g>
<!-- node_47 -->
<g id="node33" class="node"><title>node_47</title>
<ellipse fill="#bc91ff" stroke="black" cx="2199.29" cy="-816.8" rx="33.045" ry="18"/>
<text text-anchor="middle" x="2199.29" y="-812.6" font-family="Times,serif" font-size="14.00">usage</text>
</g>
<!-- node_48&#45;&gt;node_47 -->
<g id="edge43" class="edge"><title>node_48&#45;&gt;node_47</title>
<path fill="none" stroke="black" d="M2074.27,-833.206C2102.58,-829.461 2133.26,-825.403 2157.02,-822.26"/>
<polygon fill="black" stroke="black" points="2157.63,-825.71 2167.08,-820.928 2156.71,-818.77 2157.63,-825.71"/>
</g>
<!-- node_39 -->
<g id="node25" class="node"><title>node_39</title>
<ellipse fill="#367f57" stroke="black" cx="1644.43" cy="-258.8" rx="114.047" ry="18"/>
<text text-anchor="middle" x="1644.43" y="-254.6" font-family="Times,serif" font-size="14.00">female_violence_nibrs.csv</text>
</g>
<!-- node_39&#45;&gt;node_3 -->
<g id="edge27" class="edge"><title>node_39&#45;&gt;node_3</title>
<path fill="none" stroke="black" d="M1758.55,-257.722C1785.09,-261.954 1811.97,-270.335 1833.81,-285.8 1862.04,-305.789 1842.34,-333.77 1869.81,-354.8 1893.57,-372.996 1927.13,-379.434 1953.1,-381.495"/>
<polygon fill="black" stroke="black" points="1953.16,-385.005 1963.35,-382.117 1953.58,-378.018 1953.16,-385.005"/>
</g>
<!-- node_26&#45;&gt;node_45 -->
<g id="edge40" class="edge"><title>node_26&#45;&gt;node_45</title>
<path fill="none" stroke="black" d="M1693.29,-690.67C1755.8,-711.4 1865.23,-747.693 1932.92,-770.142"/>
<polygon fill="black" stroke="black" points="1932,-773.524 1942.59,-773.35 1934.2,-766.88 1932,-773.524"/>
</g>
<!-- node_26&#45;&gt;node_3 -->
<g id="edge31" class="edge"><title>node_26&#45;&gt;node_3</title>
<path fill="none" stroke="black" d="M1746.2,-676.631C1776.39,-673.068 1808.24,-664.844 1833.81,-647.8 1921.19,-589.538 1967.46,-465.238 1984.46,-409.66"/>
<polygon fill="black" stroke="black" points="1987.9,-410.39 1987.39,-399.807 1981.19,-408.397 1987.9,-410.39"/>
</g>
<!-- node_26&#45;&gt;node_4 -->
<g id="edge34" class="edge"><title>node_26&#45;&gt;node_4</title>
<path fill="none" stroke="black" d="M1737.9,-667.6C1805.81,-662.313 1895.05,-655.364 1947.75,-651.261"/>
<polygon fill="black" stroke="black" points="1948.09,-654.745 1957.79,-650.479 1947.54,-647.766 1948.09,-654.745"/>
</g>
<!-- node_15 -->
<g id="node27" class="node"><title>node_15</title>
<ellipse fill="#1fff84" stroke="black" cx="593.358" cy="-658.8" rx="131.958" ry="18"/>
<text text-anchor="middle" x="593.358" y="-654.6" font-family="Times,serif" font-size="14.00">data/forGiantOak3/isssexad.tsv</text>
</g>
<!-- node_15&#45;&gt;node_29 -->
<g id="edge11" class="edge"><title>node_15&#45;&gt;node_29</title>
<path fill="none" stroke="black" d="M693.219,-646.948C716.79,-643.07 741.708,-638.091 764.48,-631.8 820.073,-616.443 881.184,-590.573 921.434,-572.204"/>
<polygon fill="black" stroke="black" points="923.077,-575.301 930.698,-567.94 920.151,-568.942 923.077,-575.301"/>
</g>
<!-- node_5 -->
<g id="node28" class="node"><title>node_5</title>
<ellipse fill="#367f57" stroke="black" cx="193.118" cy="-1630.8" rx="91.5281" ry="18"/>
<text text-anchor="middle" x="193.118" y="-1626.6" font-family="Times,serif" font-size="14.00">acs_2015_03_18.csv</text>
</g>
<!-- node_9 -->
<g id="node29" class="node"><title>node_9</title>
<ellipse fill="#367f57" stroke="black" cx="593.358" cy="-604.8" rx="137.212" ry="18"/>
<text text-anchor="middle" x="593.358" y="-600.6" font-family="Times,serif" font-size="14.00">data/bach/phones_by_month.csv</text>
</g>
<!-- node_9&#45;&gt;node_29 -->
<g id="edge15" class="edge"><title>node_9&#45;&gt;node_29</title>
<path fill="none" stroke="black" d="M686.302,-591.452C743.431,-583.158 816.625,-572.532 873.851,-564.224"/>
<polygon fill="black" stroke="black" points="874.586,-567.654 883.979,-562.753 873.58,-560.726 874.586,-567.654"/>
</g>
<!-- node_34 -->
<g id="node30" class="node"><title>node_34</title>
<ellipse fill="#367f57" stroke="black" cx="1644.43" cy="-204.8" rx="189.245" ry="18"/>
<text text-anchor="middle" x="1644.43" y="-200.6" font-family="Times,serif" font-size="14.00">census_2000_msa_industry_gender_wage.csv</text>
</g>
<!-- node_34&#45;&gt;node_3 -->
<g id="edge20" class="edge"><title>node_34&#45;&gt;node_3</title>
<path fill="none" stroke="black" d="M1806.47,-214.313C1816.32,-218.91 1825.57,-224.659 1833.81,-231.8 1876.85,-269.11 1828.19,-315.907 1869.81,-354.8 1892.05,-375.589 1926.54,-381.718 1953.25,-383.003"/>
<polygon fill="black" stroke="black" points="1953.33,-386.506 1963.42,-383.281 1953.52,-379.509 1953.33,-386.506"/>
</g>
<!-- node_25 -->
<g id="node31" class="node"><title>node_25</title>
<ellipse fill="#367f57" stroke="black" cx="193.118" cy="-1576.8" rx="108.856" ry="18"/>
<text text-anchor="middle" x="193.118" y="-1572.6" font-family="Times,serif" font-size="14.00">2011.q1&#45;q4.singlefile.csv</text>
</g>
<!-- node_25&#45;&gt;node_63 -->
<g id="edge54" class="edge"><title>node_25&#45;&gt;node_63</title>
<path fill="none" stroke="black" d="M278.088,-1588.19C342.554,-1596.93 431.556,-1609 498.392,-1618.06"/>
<polygon fill="black" stroke="black" points="498.123,-1621.55 508.503,-1619.43 499.064,-1614.62 498.123,-1621.55"/>
</g>
<!-- node_64 -->
<g id="node36" class="node"><title>node_64</title>
<ellipse fill="#367f57" stroke="black" cx="593.358" cy="-1576.8" rx="108.856" ry="18"/>
<text text-anchor="middle" x="593.358" y="-1572.6" font-family="Times,serif" font-size="14.00">2014.q1&#45;q3.singlefile.csv</text>
</g>
<!-- node_25&#45;&gt;node_64 -->
<g id="edge55" class="edge"><title>node_25&#45;&gt;node_64</title>
<path fill="none" stroke="black" d="M302.15,-1576.8C355.385,-1576.8 419.692,-1576.8 474.229,-1576.8"/>
<polygon fill="black" stroke="black" points="474.293,-1580.3 484.293,-1576.8 474.293,-1573.3 474.293,-1580.3"/>
</g>
<!-- node_62 -->
<g id="node51" class="node"><title>node_62</title>
<ellipse fill="#367f57" stroke="black" cx="593.358" cy="-1522.8" rx="108.856" ry="18"/>
<text text-anchor="middle" x="593.358" y="-1518.6" font-family="Times,serif" font-size="14.00">2012.q1&#45;q4.singlefile.csv</text>
</g>
<!-- node_25&#45;&gt;node_62 -->
<g id="edge53" class="edge"><title>node_25&#45;&gt;node_62</title>
<path fill="none" stroke="black" d="M278.088,-1565.41C342.554,-1556.67 431.556,-1544.6 498.392,-1535.54"/>
<polygon fill="black" stroke="black" points="499.064,-1538.98 508.503,-1534.17 498.123,-1532.05 499.064,-1538.98"/>
</g>
<!-- node_60 -->
<g id="node32" class="node"><title>node_60</title>
<ellipse fill="#3cadff" stroke="black" cx="193.118" cy="-1090.8" rx="64.3094" ry="18"/>
<text text-anchor="middle" x="193.118" y="-1086.6" font-family="Times,serif" font-size="14.00">msa_panel.py</text>
</g>
<!-- node_60&#45;&gt;node_58 -->
<g id="edge51" class="edge"><title>node_60&#45;&gt;node_58</title>
<path fill="none" stroke="black" d="M257.661,-1090.8C337.406,-1090.8 472.4,-1090.8 544.156,-1090.8"/>
<polygon fill="black" stroke="black" points="544.27,-1094.3 554.27,-1090.8 544.27,-1087.3 544.27,-1094.3"/>
</g>
<!-- node_29&#45;&gt;node_28 -->
<g id="edge62" class="edge"><title>node_29&#45;&gt;node_28</title>
<path fill="none" stroke="black" d="M987.565,-568.562C1021.67,-599.023 1096.1,-661.098 1170.15,-693.8 1182.22,-699.133 1195.44,-703.45 1208.6,-706.935"/>
<polygon fill="black" stroke="black" points="1208.08,-710.412 1218.63,-709.44 1209.77,-703.621 1208.08,-710.412"/>
</g>
<!-- node_44 -->
<g id="node39" class="node"><title>node_44</title>
<ellipse fill="#367f57" stroke="black" cx="1644.43" cy="-620.8" rx="111.679" ry="18"/>
<text text-anchor="middle" x="1644.43" y="-616.6" font-family="Times,serif" font-size="14.00">ad_price_ad_level_all.csv</text>
</g>
<!-- node_29&#45;&gt;node_44 -->
<g id="edge63" class="edge"><title>node_29&#45;&gt;node_44</title>
<path fill="none" stroke="black" d="M1061.48,-560.46C1186.98,-573.473 1409.63,-596.558 1540.13,-610.089"/>
<polygon fill="black" stroke="black" points="1539.84,-613.577 1550.14,-611.127 1540.56,-606.614 1539.84,-613.577"/>
</g>
<!-- node_29&#45;&gt;node_3 -->
<g id="edge18" class="edge"><title>node_29&#45;&gt;node_3</title>
<path fill="none" stroke="black" d="M1003.21,-533.682C1081.63,-496.283 1278.74,-408.202 1455.06,-377.8 1620.95,-349.197 1665.49,-375.675 1833.81,-377.8 1874.46,-378.313 1920.96,-379.567 1953.01,-380.535"/>
<polygon fill="black" stroke="black" points="1953.19,-384.042 1963.3,-380.851 1953.41,-377.046 1953.19,-384.042"/>
</g>
<!-- node_22 -->
<g id="node35" class="node"><title>node_22</title>
<ellipse fill="#19cc69" stroke="black" cx="193.118" cy="-1684.8" rx="91.5223" ry="18"/>
<text text-anchor="middle" x="193.118" y="-1680.6" font-family="Times,serif" font-size="14.00">36120&#45;0003&#45;Data.txt</text>
</g>
<!-- node_45&#45;&gt;node_47 -->
<g id="edge42" class="edge"><title>node_45&#45;&gt;node_47</title>
<path fill="none" stroke="black" d="M2085.2,-801.839C2110.3,-805.159 2136.3,-808.599 2157.03,-811.342"/>
<polygon fill="black" stroke="black" points="2156.68,-814.826 2167.06,-812.668 2157.6,-807.887 2156.68,-814.826"/>
</g>
<!-- node_43 -->
<g id="node38" class="node"><title>node_43</title>
<ellipse fill="#367f57" stroke="black" cx="1644.43" cy="-150.8" rx="90.2868" ry="18"/>
<text text-anchor="middle" x="1644.43" y="-146.6" font-family="Times,serif" font-size="14.00">cpi_crosssection.csv</text>
</g>
<!-- node_43&#45;&gt;node_3 -->
<g id="edge32" class="edge"><title>node_43&#45;&gt;node_3</title>
<path fill="none" stroke="black" d="M1724.97,-142.543C1762.49,-143.091 1805.21,-150.822 1833.81,-177.8 1892.2,-232.886 1813.51,-297.57 1869.81,-354.8 1891.29,-376.642 1926.17,-382.625 1953.21,-383.587"/>
<polygon fill="black" stroke="black" points="1953.46,-387.091 1963.51,-383.73 1953.56,-380.091 1953.46,-387.091"/>
</g>
<!-- node_44&#45;&gt;node_3 -->
<g id="edge33" class="edge"><title>node_44&#45;&gt;node_3</title>
<path fill="none" stroke="black" d="M1755.92,-619.503C1782.81,-615.37 1810.51,-607.63 1833.81,-593.8 1908.52,-549.444 1959.29,-454.922 1980.71,-408.564"/>
<polygon fill="black" stroke="black" points="1984.03,-409.73 1984.95,-399.176 1977.65,-406.849 1984.03,-409.73"/>
</g>
<!-- node_44&#45;&gt;node_4 -->
<g id="edge36" class="edge"><title>node_44&#45;&gt;node_4</title>
<path fill="none" stroke="black" d="M1745.27,-628.573C1812.09,-633.776 1896.81,-640.373 1947.64,-644.331"/>
<polygon fill="black" stroke="black" points="1947.4,-647.823 1957.64,-645.11 1947.95,-640.844 1947.4,-647.823"/>
</g>
<!-- node_20 -->
<g id="node40" class="node"><title>node_20</title>
<ellipse fill="#19cc69" stroke="black" cx="193.118" cy="-1738.8" rx="53.8735" ry="18"/>
<text text-anchor="middle" x="193.118" y="-1734.6" font-family="Times,serif" font-size="14.00">cols_18.txt</text>
</g>
<!-- node_35 -->
<g id="node42" class="node"><title>node_35</title>
<ellipse fill="#367f57" stroke="black" cx="1644.43" cy="-96.8" rx="139.459" ry="18"/>
<text text-anchor="middle" x="1644.43" y="-92.6" font-family="Times,serif" font-size="14.00">acs_2013_msa_gender_wage.csv</text>
</g>
<!-- node_35&#45;&gt;node_3 -->
<g id="edge21" class="edge"><title>node_35&#45;&gt;node_3</title>
<path fill="none" stroke="black" d="M1783.77,-95.8227C1802.46,-101.283 1819.94,-110.101 1833.81,-123.8 1907.73,-196.822 1798.67,-279.067 1869.81,-354.8 1890.94,-377.3 1926.24,-383.154 1953.51,-383.902"/>
<polygon fill="black" stroke="black" points="1953.51,-387.401 1963.53,-383.962 1953.55,-380.402 1953.51,-387.401"/>
</g>
<!-- node_42 -->
<g id="node43" class="node"><title>node_42</title>
<ellipse fill="#367f57" stroke="black" cx="1644.43" cy="-766.8" rx="131.377" ry="18"/>
<text text-anchor="middle" x="1644.43" y="-762.6" font-family="Times,serif" font-size="14.00">msa_month_characteristics.csv</text>
</g>
<!-- node_42&#45;&gt;node_45 -->
<g id="edge41" class="edge"><title>node_42&#45;&gt;node_45</title>
<path fill="none" stroke="black" d="M1763.32,-774.619C1797.8,-776.906 1835.57,-779.411 1870.3,-781.715"/>
<polygon fill="black" stroke="black" points="1870.28,-785.221 1880.49,-782.391 1870.75,-778.237 1870.28,-785.221"/>
</g>
<!-- node_42&#45;&gt;node_3 -->
<g id="edge30" class="edge"><title>node_42&#45;&gt;node_3</title>
<path fill="none" stroke="black" d="M1730.09,-753.104C1765.63,-743.712 1805.26,-727.996 1833.81,-701.8 1862.83,-675.166 1852.82,-656.346 1869.81,-620.8 1907.26,-542.427 1955.03,-451.528 1978.26,-407.857"/>
<polygon fill="black" stroke="black" points="1981.34,-409.501 1982.96,-399.03 1975.17,-406.209 1981.34,-409.501"/>
</g>
<!-- node_14 -->
<g id="node44" class="node"><title>node_14</title>
<ellipse fill="#1fff84" stroke="black" cx="593.358" cy="-296.8" rx="140.605" ry="18"/>
<text text-anchor="middle" x="593.358" y="-292.6" font-family="Times,serif" font-size="14.00">data/forGiantOak6/incall&#45;new.tsv</text>
</g>
<!-- node_14&#45;&gt;node_29 -->
<g id="edge13" class="edge"><title>node_14&#45;&gt;node_29</title>
<path fill="none" stroke="black" d="M716.273,-305.658C733.091,-309.843 749.658,-315.689 764.48,-323.8 810.148,-348.791 905.427,-470.256 946.629,-524.521"/>
<polygon fill="black" stroke="black" points="943.937,-526.764 952.762,-532.628 949.52,-522.541 943.937,-526.764"/>
</g>
<!-- node_71 -->
<g id="node50" class="node"><title>node_71</title>
<ellipse fill="#1fff84" stroke="black" cx="967.314" cy="-323.8" rx="166.668" ry="18"/>
<text text-anchor="middle" x="967.314" y="-319.6" font-family="Times,serif" font-size="14.00">data/forGiantOak6/incalloutcall&#45;new.tsv</text>
</g>
<!-- node_14&#45;&gt;node_71 -->
<g id="edge64" class="edge"><title>node_14&#45;&gt;node_71</title>
<path fill="none" stroke="black" d="M715.893,-305.622C748.588,-307.995 784.316,-310.589 818.281,-313.054"/>
<polygon fill="black" stroke="black" points="818.055,-316.547 828.283,-313.78 818.562,-309.566 818.055,-316.547"/>
</g>
<!-- node_72 -->
<g id="node70" class="node"><title>node_72</title>
<ellipse fill="#1fff84" stroke="black" cx="967.314" cy="-269.8" rx="145.262" ry="18"/>
<text text-anchor="middle" x="967.314" y="-265.6" font-family="Times,serif" font-size="14.00">data/forGiantOak6/outcall&#45;new.tsv</text>
</g>
<!-- node_14&#45;&gt;node_72 -->
<g id="edge65" class="edge"><title>node_14&#45;&gt;node_72</title>
<path fill="none" stroke="black" d="M715.893,-287.978C752.857,-285.295 793.698,-282.33 831.484,-279.587"/>
<polygon fill="black" stroke="black" points="831.815,-283.072 841.535,-278.858 831.308,-276.091 831.815,-283.072"/>
</g>
<!-- node_13 -->
<g id="node45" class="node"><title>node_13</title>
<ellipse fill="#1fff84" stroke="black" cx="593.358" cy="-350.8" rx="155.093" ry="18"/>
<text text-anchor="middle" x="593.358" y="-346.6" font-family="Times,serif" font-size="14.00">data/forGiantOak3/msa_locations.tsv</text>
</g>
<!-- node_13&#45;&gt;node_29 -->
<g id="edge9" class="edge"><title>node_13&#45;&gt;node_29</title>
<path fill="none" stroke="black" d="M716.685,-361.833C733.183,-365.716 749.55,-370.899 764.48,-377.8 840.939,-413.145 910.968,-486.029 944.871,-524.958"/>
<polygon fill="black" stroke="black" points="942.373,-527.422 951.546,-532.724 947.682,-522.859 942.373,-527.422"/>
</g>
<!-- node_12 -->
<g id="node47" class="node"><title>node_12</title>
<ellipse fill="#1fff84" stroke="black" cx="593.358" cy="-550.8" rx="171.243" ry="18"/>
<text text-anchor="middle" x="593.358" y="-546.6" font-family="Times,serif" font-size="14.00">data/forGiantOak3/ismassageparlorad.tsv</text>
</g>
<!-- node_12&#45;&gt;node_29 -->
<g id="edge12" class="edge"><title>node_12&#45;&gt;node_29</title>
<path fill="none" stroke="black" d="M764.552,-550.8C791.994,-550.8 819.897,-550.8 845.85,-550.8"/>
<polygon fill="black" stroke="black" points="846.076,-554.3 856.076,-550.8 846.076,-547.3 846.076,-554.3"/>
</g>
<!-- node_32 -->
<g id="node48" class="node"><title>node_32</title>
<ellipse fill="#3cadff" stroke="black" cx="593.358" cy="-928.8" rx="132.507" ry="18"/>
<text text-anchor="middle" x="593.358" y="-924.6" font-family="Times,serif" font-size="14.00">make_phone_characteristics.py</text>
</g>
<!-- node_32&#45;&gt;node_31 -->
<g id="edge16" class="edge"><title>node_32&#45;&gt;node_31</title>
<path fill="none" stroke="black" d="M684.873,-915.659C742.282,-907.325 816.342,-896.573 874.079,-888.19"/>
<polygon fill="black" stroke="black" points="874.902,-891.608 884.295,-886.707 873.896,-884.68 874.902,-891.608"/>
</g>
<!-- node_1 -->
<g id="node49" class="node"><title>node_1</title>
<ellipse fill="#bc91ff" stroke="black" cx="1993.19" cy="-701.8" rx="42.8538" ry="18"/>
<text text-anchor="middle" x="1993.19" y="-697.6" font-family="Times,serif" font-size="14.00">cleanish</text>
</g>
<!-- node_1&#45;&gt;node_0 -->
<g id="edge1" class="edge"><title>node_1&#45;&gt;node_0</title>
<path fill="none" stroke="black" d="M2036.12,-701.571C2061.79,-699.405 2093.94,-692.821 2116.58,-674.8 2162.57,-638.2 2184.09,-569.481 2192.95,-530.906"/>
<polygon fill="black" stroke="black" points="2196.42,-531.392 2195.12,-520.878 2189.58,-529.91 2196.42,-531.392"/>
</g>
<!-- node_33 -->
<g id="node52" class="node"><title>node_33</title>
<ellipse fill="#367f57" stroke="black" cx="1644.43" cy="-42.8" rx="84.5333" ry="18"/>
<text text-anchor="middle" x="1644.43" y="-38.6" font-family="Times,serif" font-size="14.00">ad_zero_prices.csv</text>
</g>
<!-- node_33&#45;&gt;node_3 -->
<g id="edge19" class="edge"><title>node_33&#45;&gt;node_3</title>
<path fill="none" stroke="black" d="M1693.49,-28.0401C1736.42,-22.0924 1797.9,-24.2888 1833.81,-60.8 1923.33,-151.83 1783.75,-251.488 1869.81,-345.8 1890.81,-368.818 1926.61,-374.532 1954.09,-376.675"/>
<polygon fill="black" stroke="black" points="1953.95,-380.174 1964.16,-377.35 1954.41,-373.189 1953.95,-380.174"/>
</g>
<!-- node_33&#45;&gt;node_3 -->
<g id="edge22" class="edge"><title>node_33&#45;&gt;node_3</title>
<path fill="none" stroke="black" d="M1729.2,-41.8597C1766.09,-43.4403 1807.05,-51.5933 1833.81,-78.8 1923.33,-169.83 1783.75,-269.488 1869.81,-363.8 1891.52,-387.602 1929.07,-392.902 1956.86,-391.398"/>
<polygon fill="black" stroke="black" points="1957.33,-394.871 1966.98,-390.513 1956.72,-387.898 1957.33,-394.871"/>
</g>
<!-- node_7 -->
<g id="node53" class="node"><title>node_7</title>
<ellipse fill="#367f57" stroke="black" cx="193.118" cy="-1792.8" rx="86.2756" ry="18"/>
<text text-anchor="middle" x="193.118" y="-1788.6" font-family="Times,serif" font-size="14.00">ucr_lemas_msa.csv</text>
</g>
<!-- node_37 -->
<g id="node54" class="node"><title>node_37</title>
<ellipse fill="#367f57" stroke="black" cx="1644.43" cy="-566.8" rx="146.454" ry="18"/>
<text text-anchor="middle" x="1644.43" y="-562.6" font-family="Times,serif" font-size="14.00">month_msa_wage_instruments.csv</text>
</g>
<!-- node_37&#45;&gt;node_3 -->
<g id="edge24" class="edge"><title>node_37&#45;&gt;node_3</title>
<path fill="none" stroke="black" d="M1776.93,-559.024C1796.63,-554.744 1816.22,-548.584 1833.81,-539.8 1896.43,-508.519 1949.38,-442.972 1975.24,-406.911"/>
<polygon fill="black" stroke="black" points="1978.32,-408.609 1981.22,-398.417 1972.6,-404.579 1978.32,-408.609"/>
</g>
<!-- node_54 -->
<g id="node55" class="node"><title>node_54</title>
<ellipse fill="#89cdff" stroke="black" cx="193.118" cy="-1252.8" rx="91.5107" ry="18"/>
<text text-anchor="middle" x="193.118" y="-1248.6" font-family="Times,serif" font-size="14.00">msa_level_analysis.r</text>
</g>
<!-- node_54&#45;&gt;node_52 -->
<g id="edge47" class="edge"><title>node_54&#45;&gt;node_52</title>
<path fill="none" stroke="black" d="M280.04,-1258.63C354.639,-1263.68 460.981,-1270.89 528.321,-1275.46"/>
<polygon fill="black" stroke="black" points="528.16,-1278.96 538.374,-1276.14 528.633,-1271.97 528.16,-1278.96"/>
</g>
<!-- node_70 -->
<g id="node56" class="node"><title>node_70</title>
<ellipse fill="#1fff84" stroke="black" cx="593.358" cy="-982.8" rx="118.052" ry="18"/>
<text text-anchor="middle" x="593.358" y="-978.6" font-family="Times,serif" font-size="14.00">data/forGiantOak3/rates.tsv</text>
</g>
<!-- node_3&#45;&gt;node_0 -->
<g id="edge3" class="edge"><title>node_3&#45;&gt;node_0</title>
<path fill="none" stroke="black" d="M2015.27,-394.293C2050.47,-415.164 2121.55,-457.305 2164.03,-482.488"/>
<polygon fill="black" stroke="black" points="2162.5,-485.653 2172.89,-487.742 2166.07,-479.631 2162.5,-485.653"/>
</g>
<!-- node_4&#45;&gt;node_0 -->
<g id="edge4" class="edge"><title>node_4&#45;&gt;node_0</title>
<path fill="none" stroke="black" d="M2014.89,-633.099C2051.01,-607.435 2125.72,-554.353 2167.79,-524.467"/>
<polygon fill="black" stroke="black" points="2169.87,-527.282 2176,-518.637 2165.82,-521.576 2169.87,-527.282"/>
</g>
<!-- node_24 -->
<g id="node59" class="node"><title>node_24</title>
<ellipse fill="#19cc69" stroke="black" cx="193.118" cy="-1846.8" rx="184.669" ry="18"/>
<text text-anchor="middle" x="193.118" y="-1842.6" font-family="Times,serif" font-size="14.00">ICPSR_34603/DS0001/34603&#45;0001&#45;Data.txt</text>
</g>
<!-- node_65 -->
<g id="node60" class="node"><title>node_65</title>
<ellipse fill="#1fff84" stroke="black" cx="593.358" cy="-820.8" rx="163.157" ry="18"/>
<text text-anchor="middle" x="593.358" y="-816.6" font-family="Times,serif" font-size="14.00">data/forGiantOak3/email_addresses.tsv</text>
</g>
<!-- node_40 -->
<g id="node61" class="node"><title>node_40</title>
<ellipse fill="#367f57" stroke="black" cx="1644.43" cy="-512.8" rx="83.3481" ry="18"/>
<text text-anchor="middle" x="1644.43" y="-508.6" font-family="Times,serif" font-size="14.00">violence_nibrs.csv</text>
</g>
<!-- node_40&#45;&gt;node_3 -->
<g id="edge28" class="edge"><title>node_40&#45;&gt;node_3</title>
<path fill="none" stroke="black" d="M1726.19,-509.019C1760.26,-505.453 1799.82,-498.66 1833.81,-485.8 1885.84,-466.116 1938.24,-427.058 1967.82,-402.81"/>
<polygon fill="black" stroke="black" points="1970.09,-405.477 1975.54,-396.392 1965.61,-400.094 1970.09,-405.477"/>
</g>
<!-- node_57 -->
<g id="node62" class="node"><title>node_57</title>
<ellipse fill="#89cdff" stroke="black" cx="193.118" cy="-1954.8" rx="115.229" ry="18"/>
<text text-anchor="middle" x="193.118" y="-1950.6" font-family="Times,serif" font-size="14.00">individual_level_analysis.r</text>
</g>
<!-- node_55 -->
<g id="node64" class="node"><title>node_55</title>
<ellipse fill="#bc91ff" stroke="black" cx="593.358" cy="-1927.8" rx="69.4993" ry="18"/>
<text text-anchor="middle" x="593.358" y="-1923.6" font-family="Times,serif" font-size="14.00">micro_analysis</text>
</g>
<!-- node_57&#45;&gt;node_55 -->
<g id="edge49" class="edge"><title>node_57&#45;&gt;node_55</title>
<path fill="none" stroke="black" d="M299.272,-1947.67C367.379,-1943.05 454.516,-1937.15 516.019,-1932.98"/>
<polygon fill="black" stroke="black" points="516.305,-1936.46 526.045,-1932.3 515.831,-1929.48 516.305,-1936.46"/>
</g>
<!-- node_68 -->
<g id="node63" class="node"><title>node_68</title>
<ellipse fill="#1fff84" stroke="black" cx="593.358" cy="-766.8" rx="161.464" ry="18"/>
<text text-anchor="middle" x="593.358" y="-762.6" font-family="Times,serif" font-size="14.00">data/forGiantOak3/phone_numbers.tsv</text>
</g>
<!-- node_38 -->
<g id="node65" class="node"><title>node_38</title>
<ellipse fill="#367f57" stroke="black" cx="1644.43" cy="-458.8" rx="94.9841" ry="18"/>
<text text-anchor="middle" x="1644.43" y="-454.6" font-family="Times,serif" font-size="14.00">prostitution_nibrs.csv</text>
</g>
<!-- node_38&#45;&gt;node_3 -->
<g id="edge26" class="edge"><title>node_38&#45;&gt;node_3</title>
<path fill="none" stroke="black" d="M1727.56,-449.99C1760.78,-445.66 1799.34,-439.655 1833.81,-431.8 1877.19,-421.913 1925.82,-405.78 1957.6,-394.522"/>
<polygon fill="black" stroke="black" points="1959.07,-397.716 1967.31,-391.053 1956.71,-391.125 1959.07,-397.716"/>
</g>
<!-- node_61 -->
<g id="node66" class="node"><title>node_61</title>
<ellipse fill="#3cadff" stroke="black" cx="193.118" cy="-1036.8" rx="67.7178" ry="18"/>
<text text-anchor="middle" x="193.118" y="-1032.6" font-family="Times,serif" font-size="14.00">zero_prices.py</text>
</g>
<!-- node_61&#45;&gt;node_58 -->
<g id="edge52" class="edge"><title>node_61&#45;&gt;node_58</title>
<path fill="none" stroke="black" d="M253.739,-1044.88C333.465,-1055.69 473.152,-1074.64 545.68,-1084.47"/>
<polygon fill="black" stroke="black" points="545.499,-1087.98 555.879,-1085.85 546.44,-1081.04 545.499,-1087.98"/>
</g>
<!-- node_41 -->
<g id="node67" class="node"><title>node_41</title>
<ellipse fill="#367f57" stroke="black" cx="1644.43" cy="-404.8" rx="84.5564" ry="18"/>
<text text-anchor="middle" x="1644.43" y="-400.6" font-family="Times,serif" font-size="14.00">provider_panel.csv</text>
</g>
<!-- node_41&#45;&gt;node_3 -->
<g id="edge29" class="edge"><title>node_41&#45;&gt;node_3</title>
<path fill="none" stroke="black" d="M1725.86,-399.466C1797.28,-394.728 1898.59,-388.009 1953.38,-384.374"/>
<polygon fill="black" stroke="black" points="1953.63,-387.866 1963.38,-383.712 1953.17,-380.881 1953.63,-387.866"/>
</g>
<!-- node_19 -->
<g id="node68" class="node"><title>node_19</title>
<ellipse fill="#bc91ff" stroke="black" cx="193.118" cy="-2008.8" rx="67.1825" ry="18"/>
<text text-anchor="middle" x="193.118" y="-2004.6" font-family="Times,serif" font-size="14.00">usa_00018.dat</text>
</g>
<!-- node_16 -->
<g id="node69" class="node"><title>node_16</title>
<ellipse fill="#bc91ff" stroke="black" cx="193.118" cy="-2062.8" rx="60.8159" ry="18"/>
<text text-anchor="middle" x="193.118" y="-2058.6" font-family="Times,serif" font-size="14.00">escort_cdr_2</text>
</g>
<!-- node_11 -->
<g id="node71" class="node"><title>node_11</title>
<ellipse fill="#1fff84" stroke="black" cx="193.118" cy="-739.8" rx="193.236" ry="18"/>
<text text-anchor="middle" x="193.118" y="-735.6" font-family="Times,serif" font-size="14.00">data/forGiantOak3/doc&#45;provider&#45;timestamp.tsv</text>
</g>
<!-- node_11&#45;&gt;node_67 -->
<g id="edge58" class="edge"><title>node_11&#45;&gt;node_67</title>
<path fill="none" stroke="black" d="M349.799,-729.245C391.253,-726.435 435.346,-723.445 474.411,-720.797"/>
<polygon fill="black" stroke="black" points="475.017,-724.264 484.758,-720.095 474.544,-717.28 475.017,-724.264"/>
</g>
<!-- node_11&#45;&gt;node_69 -->
<g id="edge60" class="edge"><title>node_11&#45;&gt;node_69</title>
<path fill="none" stroke="black" d="M206.862,-721.837C238.091,-679.354 323.162,-572.61 422.236,-523.8 437.597,-516.232 454.598,-510.699 471.736,-506.669"/>
<polygon fill="black" stroke="black" points="472.808,-510.018 481.832,-504.466 471.315,-503.179 472.808,-510.018"/>
</g>
<!-- node_11&#45;&gt;node_66 -->
<g id="edge57" class="edge"><title>node_11&#45;&gt;node_66</title>
<path fill="none" stroke="black" d="M234.295,-757.55C278.221,-779.022 347.502,-819.312 386.236,-874.8 421.781,-925.718 376.121,-968.214 422.236,-1009.8 430.146,-1016.93 439.148,-1022.6 448.785,-1027.08"/>
<polygon fill="black" stroke="black" points="447.628,-1030.39 458.205,-1031.02 450.327,-1023.93 447.628,-1030.39"/>
</g>
<!-- node_11&#45;&gt;node_29 -->
<g id="edge10" class="edge"><title>node_11&#45;&gt;node_29</title>
<path fill="none" stroke="black" d="M202.421,-721.67C227.102,-670.288 305.629,-523.935 422.236,-469.8 595.167,-389.517 829.271,-483.715 923.962,-529.08"/>
<polygon fill="black" stroke="black" points="922.693,-532.354 933.217,-533.572 925.749,-526.056 922.693,-532.354"/>
</g>
<!-- node_11&#45;&gt;node_13 -->
<g id="edge5" class="edge"><title>node_11&#45;&gt;node_13</title>
<path fill="none" stroke="black" d="M199.538,-721.684C218.627,-661.294 288.901,-465.719 422.236,-377.8 431.034,-371.999 440.633,-367.284 450.646,-363.464"/>
<polygon fill="black" stroke="black" points="452.074,-366.673 460.36,-360.071 449.765,-360.065 452.074,-366.673"/>
</g>
<!-- node_11&#45;&gt;node_70 -->
<g id="edge61" class="edge"><title>node_11&#45;&gt;node_70</title>
<path fill="none" stroke="black" d="M230.44,-757.541C272.767,-779.8 342.477,-821.59 386.236,-874.8 411.26,-905.228 390.994,-931.802 422.236,-955.8 435.199,-965.756 450.381,-972.692 466.244,-977.443"/>
<polygon fill="black" stroke="black" points="465.629,-980.902 476.195,-980.126 467.451,-974.144 465.629,-980.902"/>
</g>
<!-- node_11&#45;&gt;node_65 -->
<g id="edge56" class="edge"><title>node_11&#45;&gt;node_65</title>
<path fill="none" stroke="black" d="M259.718,-756.709C305.152,-768.08 367.136,-782.922 422.236,-793.8 442.154,-797.732 463.473,-801.478 484.048,-804.859"/>
<polygon fill="black" stroke="black" points="483.647,-808.34 494.079,-806.489 484.77,-801.43 483.647,-808.34"/>
</g>
<!-- node_11&#45;&gt;node_68 -->
<g id="edge59" class="edge"><title>node_11&#45;&gt;node_68</title>
<path fill="none" stroke="black" d="M349.799,-750.355C381.098,-752.477 413.903,-754.701 444.911,-756.803"/>
<polygon fill="black" stroke="black" points="444.697,-760.297 454.911,-757.481 445.171,-753.313 444.697,-760.297"/>
</g>
<!-- node_56 -->
<g id="node72" class="node"><title>node_56</title>
<ellipse fill="#367f57" stroke="black" cx="193.118" cy="-1900.8" rx="111.117" ry="18"/>
<text text-anchor="middle" x="193.118" y="-1896.6" font-family="Times,serif" font-size="14.00">ad_prices_msa_micro.csv</text>
</g>
<!-- node_56&#45;&gt;node_55 -->
<g id="edge48" class="edge"><title>node_56&#45;&gt;node_55</title>
<path fill="none" stroke="black" d="M295.899,-1907.7C364.336,-1912.34 453.118,-1918.36 515.621,-1922.6"/>
<polygon fill="black" stroke="black" points="515.593,-1926.1 525.807,-1923.29 516.067,-1919.12 515.593,-1926.1"/>
</g>
<!-- node_30 -->
<g id="node73" class="node"><title>node_30</title>
<ellipse fill="#3cadff" stroke="black" cx="593.358" cy="-404.8" rx="85.6999" ry="18"/>
<text text-anchor="middle" x="593.358" y="-400.6" font-family="Times,serif" font-size="14.00">make_ad_prices.py</text>
</g>
<!-- node_30&#45;&gt;node_29 -->
<g id="edge8" class="edge"><title>node_30&#45;&gt;node_29</title>
<path fill="none" stroke="black" d="M669.043,-413.427C699.273,-418.304 734.132,-425.721 764.48,-436.8 827.741,-459.895 894.541,-501.509 933.221,-527.562"/>
<polygon fill="black" stroke="black" points="931.264,-530.464 941.501,-533.192 935.2,-524.675 931.264,-530.464"/>
</g>
</g>
</svg>
